# This file uses centimeters as units for non-parametric coordinates.

mtllib Enemy02_left_shoulder.mtl
g default
v 0.607634 0.175232 -0.063136
v 0.606996 0.148170 -0.116247
v 0.606286 0.106020 -0.158395
v 0.605574 0.052909 -0.185454
v 0.604929 -0.005966 -0.194775
v 0.604415 -0.064841 -0.185445
v 0.604082 -0.117952 -0.158379
v 0.603963 -0.160102 -0.116226
v 0.604069 -0.187164 -0.063111
v 0.604389 -0.196488 -0.004234
v 0.604894 -0.187164 0.054641
v 0.605532 -0.160101 0.107752
v 0.606242 -0.117952 0.149900
v 0.606954 -0.064841 0.176959
v 0.607599 -0.005966 0.186279
v 0.608113 0.052909 0.176950
v 0.608446 0.106020 0.149884
v 0.608565 0.148170 0.107731
v 0.608459 0.175231 0.054616
v 0.608138 0.184556 -0.004261
v 0.480622 0.176482 -0.062246
v 0.479984 0.149420 -0.115357
v 0.479274 0.107270 -0.157505
v 0.478562 0.054159 -0.184564
v 0.477917 -0.004716 -0.193885
v 0.477403 -0.063591 -0.184556
v 0.477070 -0.116703 -0.157490
v 0.476950 -0.158852 -0.115336
v 0.477056 -0.185914 -0.062221
v 0.477377 -0.195239 -0.003345
v 0.477881 -0.185914 0.055531
v 0.478519 -0.158852 0.108642
v 0.479230 -0.116703 0.150790
v 0.479942 -0.063591 0.177848
v 0.480587 -0.004716 0.187169
v 0.481101 0.054159 0.177840
v 0.481434 0.107270 0.150774
v 0.481553 0.149420 0.108621
v 0.481447 0.176482 0.055506
v 0.481127 0.185806 -0.003371
v 0.353611 0.177732 -0.061356
v 0.352972 0.150670 -0.114467
v 0.352262 0.108520 -0.156615
v 0.351550 0.055408 -0.183674
v 0.350905 -0.003466 -0.192995
v 0.350392 -0.062341 -0.183666
v 0.350058 -0.115452 -0.156600
v 0.349939 -0.157602 -0.114446
v 0.350044 -0.184664 -0.061331
v 0.350365 -0.193989 -0.002455
v 0.350869 -0.184664 0.056421
v 0.351508 -0.157602 0.109532
v 0.352218 -0.115452 0.151680
v 0.352930 -0.062341 0.178738
v 0.353575 -0.003466 0.188059
v 0.354089 0.055408 0.178730
v 0.354422 0.108520 0.151664
v 0.354541 0.150670 0.109511
v 0.354436 0.177731 0.056396
v 0.354115 0.187056 -0.002481
v 0.226598 0.178981 -0.060467
v 0.225960 0.151919 -0.113578
v 0.225250 0.109770 -0.155725
v 0.224538 0.056658 -0.182784
v 0.223893 -0.002216 -0.192105
v 0.223379 -0.061091 -0.182776
v 0.223046 -0.114203 -0.155710
v 0.222927 -0.156353 -0.113556
v 0.223032 -0.183414 -0.060442
v 0.223353 -0.192739 -0.001565
v 0.223858 -0.183414 0.057311
v 0.224496 -0.156353 0.110422
v 0.225206 -0.114203 0.152569
v 0.225918 -0.061091 0.179628
v 0.226563 -0.002216 0.188949
v 0.227077 0.056658 0.179620
v 0.227410 0.109770 0.152554
v 0.227529 0.151919 0.110400
v 0.227423 0.178981 0.057286
v 0.227103 0.188306 -0.001591
v 0.606264 -0.005966 -0.004248
v 0.225228 -0.002216 -0.001578
v 0.472109 -0.646631 -0.121282
v 0.472420 -0.646632 -0.076910
v 0.345408 -0.645382 -0.076020
v 0.345097 -0.645382 -0.120392
v 0.472935 -0.646632 -0.003313
v 0.345924 -0.645382 -0.002423
v 0.473451 -0.646632 0.070283
v 0.346439 -0.645382 0.071173
v 0.473762 -0.646632 0.114655
v 0.346750 -0.645382 0.115545
v -0.000481 0.181216 -0.058876
v -0.001119 0.154154 -0.111987
v -0.001851 0.000018 0.000013
v 0.000450 0.154153 0.111991
v 0.000344 0.181215 0.058877
v 0.000023 0.190540 -0.000000
v -0.004153 -0.154118 -0.111965
v -0.004047 -0.181180 -0.058851
v -0.001851 0.000018 0.000013
v -0.003726 -0.190505 0.000026
v -0.003222 -0.181180 0.058902
v -0.002583 -0.154118 0.112013
vt 0.874561 0.962167
vt 0.867381 0.965820
vt 0.859422 0.941361
vt 0.880259 0.956478
vt 0.883917 0.949308
vt 0.885178 0.941361
vt 0.883917 0.933413
vt 0.880259 0.926244
vt 0.874561 0.920554
vt 0.867381 0.916901
vt 0.859422 0.915642
vt 0.851462 0.916901
vt 0.844283 0.920554
vt 0.838584 0.926244
vt 0.834926 0.933413
vt 0.833665 0.941361
vt 0.834926 0.949308
vt 0.838584 0.956478
vt 0.844283 0.962167
vt 0.851462 0.965820
vt 0.182154 0.975706
vt 0.182121 0.972782
vt 0.166511 0.972917
vt 0.166544 0.975841
vt 0.182070 0.968226
vt 0.166460 0.968361
vt 0.182006 0.962486
vt 0.166396 0.962621
vt 0.181935 0.956123
vt 0.166325 0.956258
vt 0.181864 0.949760
vt 0.166254 0.949895
vt 0.181800 0.944020
vt 0.166189 0.944155
vt 0.181749 0.939465
vt 0.166138 0.939600
vt 0.181716 0.936540
vt 0.166106 0.936675
vt 0.181705 0.935533
vt 0.166094 0.935668
vt 0.181716 0.936540
vt 0.166106 0.936675
vt 0.181749 0.939465
vt 0.166138 0.939600
vt 0.181800 0.944020
vt 0.166189 0.944155
vt 0.181864 0.949760
vt 0.166254 0.949895
vt 0.181935 0.956123
vt 0.166325 0.956258
vt 0.182006 0.962486
vt 0.166396 0.962621
vt 0.182070 0.968226
vt 0.166460 0.968361
vt 0.182121 0.972782
vt 0.166511 0.972917
vt 0.182154 0.975706
vt 0.166544 0.975841
vt 0.182165 0.976714
vt 0.166555 0.976849
vt 0.150901 0.973052
vt 0.150934 0.975976
vt 0.150850 0.968496
vt 0.150786 0.962756
vt 0.150715 0.956393
vt 0.150643 0.950030
vt 0.150579 0.944290
vt 0.150528 0.939735
vt 0.150579 0.944290
vt 0.150528 0.939735
vt 0.150643 0.950030
vt 0.150715 0.956393
vt 0.150786 0.962756
vt 0.150850 0.968496
vt 0.150901 0.973052
vt 0.150934 0.975976
vt 0.150945 0.976984
vt 0.135291 0.973187
vt 0.135323 0.976111
vt 0.135240 0.968631
vt 0.135175 0.962891
vt 0.135104 0.956528
vt 0.135033 0.950166
vt 0.134969 0.944425
vt 0.134918 0.939870
vt 0.150495 0.936810
vt 0.134885 0.936945
vt 0.150484 0.935803
vt 0.134874 0.935938
vt 0.150495 0.936810
vt 0.134885 0.936945
vt 0.134918 0.939870
vt 0.134969 0.944425
vt 0.135033 0.950166
vt 0.135104 0.956528
vt 0.135175 0.962891
vt 0.135240 0.968631
vt 0.135291 0.973187
vt 0.135323 0.976111
vt 0.135335 0.977119
vt 0.291921 0.892182
vt 0.285006 0.892182
vt 0.285006 0.892360
vt 0.291921 0.892360
vt 0.273535 0.892182
vt 0.273535 0.892360
vt 0.262065 0.892182
vt 0.262065 0.892360
vt 0.255149 0.892182
vt 0.255149 0.892360
vt 0.336782 0.977665
vt 0.345060 0.973825
vt 0.327606 0.951950
vt 0.345060 0.973507
vt 0.351629 0.967526
vt 0.327606 0.951633
vt 0.355847 0.959989
vt 0.357301 0.951633
vt 0.355847 0.943278
vt 0.351629 0.935741
vt 0.345060 0.929759
vt 0.345060 0.930076
vt 0.336782 0.926236
vt 0.327606 0.951950
vt 0.859422 0.967079
vt 0.327606 0.924912
vt 0.318430 0.926236
vt 0.310152 0.930076
vt 0.310152 0.929759
vt 0.303583 0.935741
vt 0.299365 0.943278
vt 0.297911 0.951633
vt 0.299365 0.959989
vt 0.303583 0.967526
vt 0.310152 0.973507
vt 0.310152 0.973825
vt 0.318430 0.977665
vt 0.327606 0.978988
vt 0.290990 0.961405
vt 0.282712 0.957565
vt 0.282712 0.957742
vt 0.290990 0.961583
vt 0.273535 0.956242
vt 0.273535 0.956419
vt 0.264359 0.957565
vt 0.264359 0.957742
vt 0.256081 0.961405
vt 0.256081 0.961583
vt 0.336782 0.977348
vt 0.318430 0.977348
vt 0.327606 0.978671
vt 0.336782 0.925919
vt 0.327606 0.924595
vt 0.318430 0.925919
vn 0.007193 0.951011 -0.309075
vn 0.003842 0.808977 -0.587828
vn 0.007192 0.951011 -0.309075
vn 0.003842 0.808977 -0.587827
vn 0.000115 0.587757 -0.809037
vn 0.000115 0.587757 -0.809037
vn -0.003623 0.309002 -0.951055
vn -0.003623 0.309003 -0.951054
vn -0.007006 0.000000 -0.999976
vn -0.007006 -0.000000 -0.999976
vn -0.009704 -0.309003 -0.951012
vn -0.009703 -0.309002 -0.951012
vn -0.011450 -0.587756 -0.808957
vn -0.011451 -0.587756 -0.808957
vn -0.012077 -0.808976 -0.587718
vn -0.012056 -0.776866 -0.629551
vn -0.011525 -0.951011 -0.308942
vn -0.011525 -0.951011 -0.308943
vn -0.009840 -0.999952 0.000068
vn -0.009840 -0.999952 0.000068
vn -0.007195 -0.951009 0.309079
vn -0.007194 -0.951010 0.309077
vn -0.003841 -0.808976 0.587829
vn -0.003232 -0.776867 0.629657
vn -0.000113 -0.587759 0.809036
vn -0.000116 -0.587756 0.809038
vn 0.003623 -0.309002 0.951055
vn 0.003622 -0.309001 0.951055
vn 0.007006 0.000001 0.999976
vn 0.007006 0.000000 0.999975
vn 0.009704 0.309002 0.951012
vn 0.009703 0.309003 0.951012
vn 0.011451 0.587757 0.808957
vn 0.011451 0.587757 0.808956
vn 0.012078 0.808979 0.587713
vn 0.012078 0.808977 0.587716
vn 0.011525 0.951010 0.308945
vn 0.011522 0.951011 0.308943
vn 0.009840 0.999952 -0.000066
vn 0.009838 0.999952 -0.000068
vn 0.007192 0.951011 -0.309074
vn 0.003842 0.808977 -0.587827
vn 0.000115 0.587757 -0.809037
vn -0.003623 0.309002 -0.951054
vn -0.007006 -0.000000 -0.999975
vn -0.009704 -0.309003 -0.951012
vn -0.011451 -0.587757 -0.808957
vn -0.012054 -0.776863 -0.629554
vn -0.009839 -0.999952 0.000053
vn -0.009839 -0.999952 0.000063
vn -0.009839 -0.999952 0.000053
vn -0.009839 -0.999952 0.000063
vn -0.009839 -0.999952 0.000069
vn -0.009839 -0.999952 0.000070
vn -0.009839 -0.999952 0.000073
vn -0.009839 -0.999952 0.000073
vn -0.009839 -0.999952 0.000079
vn -0.009839 -0.999952 0.000078
vn -0.003234 -0.776865 0.629659
vn -0.000115 -0.587759 0.809036
vn 0.003623 -0.309002 0.951054
vn 0.007006 0.000000 0.999976
vn 0.009703 0.309002 0.951012
vn 0.011451 0.587757 0.808956
vn 0.012077 0.808979 0.587714
vn 0.011522 0.951011 0.308944
vn 0.009840 0.999952 -0.000065
vn 0.007192 0.951011 -0.309075
vn 0.004685 0.850542 -0.525885
vn 0.000115 0.587757 -0.809037
vn -0.003623 0.309002 -0.951054
vn -0.007006 -0.000000 -0.999975
vn -0.009703 -0.309001 -0.951012
vn -0.011450 -0.587755 -0.808958
vn -0.012053 -0.850545 -0.525764
vn -0.011525 -0.951011 -0.308942
vn -0.011523 -0.951011 -0.308943
vn -0.009840 -0.999952 0.000068
vn -0.009840 -0.999952 0.000069
vn -0.007195 -0.951009 0.309079
vn -0.007192 -0.951010 0.309075
vn -0.004683 -0.850545 0.525882
vn -0.000115 -0.587757 0.809038
vn 0.003621 -0.309000 0.951055
vn 0.007006 -0.000000 0.999976
vn 0.009703 0.309002 0.951012
vn 0.011451 0.587757 0.808956
vn 0.012053 0.850543 0.525768
vn 0.011522 0.951011 0.308944
vn 0.009838 0.999952 -0.000069
vn 0.999927 -0.009840 -0.007005
vn 0.999927 -0.009838 -0.007005
vn 0.999927 -0.009839 -0.007005
vn 0.999927 -0.009840 -0.007007
vn 0.999927 -0.009838 -0.007005
vn 0.999927 -0.009840 -0.007005
vn 0.999927 -0.009839 -0.007005
vn 0.999927 -0.009840 -0.007005
vn 0.999927 -0.009840 -0.007006
vn 0.999927 -0.009839 -0.007006
vn 0.999927 -0.009839 -0.007006
vn 0.999927 -0.009839 -0.007006
vn 0.999927 -0.009839 -0.007005
vn 0.999927 -0.009838 -0.007005
vn 0.999927 -0.009840 -0.007004
vn 0.999927 -0.009841 -0.007006
vn 0.999927 -0.009837 -0.007006
vn 0.999927 -0.009838 -0.007005
vn 0.999927 -0.009839 -0.007006
vn 0.999927 -0.009838 -0.007006
vn 0.999927 -0.009839 -0.007005
vn -0.999927 0.009839 0.007006
vn -0.999927 0.009840 0.007006
vn -0.999927 0.009839 0.007006
vn -0.999927 0.009840 0.007007
vn -0.999927 0.009839 0.007006
vn -0.999927 0.009839 0.007006
vn -0.999927 0.009840 0.007006
vn -0.999927 0.009840 0.007006
vn -0.999927 0.009839 0.007006
vn -0.999927 0.009838 0.007006
vn -0.999927 0.009840 0.007005
vn -0.999927 0.009839 0.007006
vn -0.999927 0.009839 0.007006
vn -0.999927 0.009839 0.007006
vn -0.999927 0.009839 0.007005
vn -0.999927 0.009839 0.007005
vn -0.999927 0.009840 0.007006
vn -0.999927 0.009840 0.007007
vn -0.999927 0.009838 0.007006
vn -0.999927 0.009839 0.007006
vn -0.999927 0.009839 0.007005
vn -0.999927 0.009840 0.007006
vn -0.999927 0.009839 0.007006
vn -0.999927 0.009838 0.007007
vn -0.999927 0.009838 0.007007
vn -0.999927 0.009839 0.007006
vn -0.999927 0.009839 0.007006
vn -0.999927 0.009839 0.007005
vn 0.999927 -0.009839 -0.007004
vn 0.999927 -0.009839 -0.007005
vn 0.999927 -0.009839 -0.007004
vn 0.999927 -0.009839 -0.007005
vn -0.999927 0.009839 0.007006
vn -0.999927 0.009839 0.007004
vn -0.999927 0.009839 0.007005
vn -0.999927 0.009839 0.007003
vn -0.006885 0.012256 -0.999901
vn -0.006885 0.012256 -0.999901
vn -0.006885 0.012256 -0.999901
vn -0.006885 0.012256 -0.999901
vn 0.999927 -0.009839 -0.007005
vn 0.999927 -0.009839 -0.007007
vn -0.999927 0.009839 0.007005
vn -0.999927 0.009839 0.007006
vn 0.999927 -0.009839 -0.007006
vn 0.999927 -0.009839 -0.007006
vn -0.999927 0.009839 0.007004
vn -0.999927 0.009839 0.007007
vn 0.999927 -0.009839 -0.007008
vn 0.999927 -0.009839 -0.007004
vn 0.007126 0.012257 0.999900
vn 0.007126 0.012257 0.999900
vn 0.007126 0.012257 0.999900
vn 0.007126 0.012257 0.999900
vn -0.999927 0.009839 0.007003
vn -0.999927 0.009839 0.007006
vn 0.007193 0.951012 -0.309071
vn 0.005588 0.890965 -0.454037
vn -0.011452 -0.587757 -0.808956
vn -0.011451 -0.587756 -0.808957
vn -0.011451 -0.587756 -0.808957
vn -0.011450 -0.587755 -0.808958
vn 0.011945 0.890962 0.453921
vn 0.011521 0.951010 0.308947
vn -0.000114 -0.587757 0.809037
vn -0.000114 -0.587757 0.809037
vn -0.000114 -0.587757 0.809037
vn -0.000114 -0.587757 0.809037
vn 0.009839 0.999952 -0.000065
vn -0.011947 -0.890965 -0.453914
vn -0.011522 -0.951011 -0.308943
vn 0.000114 0.587756 -0.809038
vn 0.000115 0.587757 -0.809038
vn 0.000115 0.587757 -0.809038
vn 0.000115 0.587757 -0.809037
vn -0.009838 -0.999952 0.000065
vn -0.007191 -0.951011 0.309074
vn -0.005586 -0.890962 0.454044
vn 0.011451 0.587756 0.808957
vn 0.011451 0.587757 0.808957
vn 0.011450 0.587757 0.808957
vn 0.011450 0.587757 0.808956
s 1
g pCylinder1
usemtl lambert2SG
f 1/21/1 2/22/2 21/24/3
f 21/24/3 2/22/2 22/23/4
f 2/22/2 3/25/5 22/23/4
f 22/23/4 3/25/5 23/26/6
f 3/25/5 4/27/7 23/26/6
f 23/26/6 4/27/7 24/28/8
f 4/27/7 5/29/9 24/28/8
f 24/28/8 5/29/9 25/30/10
f 5/29/9 6/31/11 25/30/10
f 25/30/10 6/31/11 26/32/12
f 6/31/11 7/33/13 26/32/12
f 26/32/12 7/33/13 27/34/14
f 7/33/13 8/35/15 27/34/14
f 27/34/14 8/35/15 28/36/16
f 8/35/15 9/37/17 28/36/16
f 28/36/16 9/37/17 29/38/18
f 9/37/17 10/39/19 29/38/18
f 29/38/18 10/39/19 30/40/20
f 10/39/19 11/41/21 30/40/20
f 30/40/20 11/41/21 31/42/22
f 11/41/21 12/43/23 31/42/22
f 31/42/22 12/43/23 32/44/24
f 12/43/23 13/45/25 32/44/24
f 32/44/24 13/45/25 33/46/26
f 13/45/25 14/47/27 33/46/26
f 33/46/26 14/47/27 34/48/28
f 14/47/27 15/49/29 34/48/28
f 34/48/28 15/49/29 35/50/30
f 15/49/29 16/51/31 35/50/30
f 35/50/30 16/51/31 36/52/32
f 16/51/31 17/53/33 36/52/32
f 36/52/32 17/53/33 37/54/34
f 17/53/33 18/55/35 37/54/34
f 37/54/34 18/55/35 38/56/36
f 18/55/35 19/57/37 38/56/36
f 38/56/36 19/57/37 39/58/38
f 19/57/37 20/59/39 39/58/38
f 39/58/38 20/59/39 40/60/40
f 20/59/39 1/21/1 40/60/40
f 40/60/40 1/21/1 21/24/3
f 21/24/3 22/23/4 41/62/41
f 41/62/41 22/23/4 42/61/42
f 22/23/4 23/26/6 42/61/42
f 42/61/42 23/26/6 43/63/43
f 23/26/6 24/28/8 43/63/43
f 43/63/43 24/28/8 44/64/44
f 24/28/8 25/30/10 44/64/44
f 44/64/44 25/30/10 45/65/45
f 25/30/10 26/32/12 45/65/45
f 45/65/45 26/32/12 46/66/46
f 26/32/12 27/34/14 46/66/46
f 46/66/46 27/34/14 47/67/47
f 27/34/14 28/36/16 47/67/47
f 47/67/47 28/36/16 48/68/48
s 2
f 83/101/49 84/102/50 86/104/51
f 86/104/51 84/102/50 85/103/52
f 84/102/50 87/105/53 85/103/52
f 85/103/52 87/105/53 88/106/54
f 87/105/53 89/107/55 88/106/54
f 88/106/54 89/107/55 90/108/56
f 89/107/55 91/109/57 90/108/56
f 90/108/56 91/109/57 92/110/58
s 1
f 32/44/24 33/46/26 52/70/59
f 52/70/59 33/46/26 53/69/60
f 33/46/26 34/48/28 53/69/60
f 53/69/60 34/48/28 54/71/61
f 34/48/28 35/50/30 54/71/61
f 54/71/61 35/50/30 55/72/62
f 35/50/30 36/52/32 55/72/62
f 55/72/62 36/52/32 56/73/63
f 36/52/32 37/54/34 56/73/63
f 56/73/63 37/54/34 57/74/64
f 37/54/34 38/56/36 57/74/64
f 57/74/64 38/56/36 58/75/65
f 38/56/36 39/58/38 58/75/65
f 58/75/65 39/58/38 59/76/66
f 39/58/38 40/60/40 59/76/66
f 59/76/66 40/60/40 60/77/67
f 40/60/40 21/24/3 60/77/67
f 60/77/67 21/24/3 41/62/41
f 41/62/41 42/61/42 61/79/68
f 61/79/68 42/61/42 62/78/69
f 42/61/42 43/63/43 62/78/69
f 62/78/69 43/63/43 63/80/70
f 43/63/43 44/64/44 63/80/70
f 63/80/70 44/64/44 64/81/71
f 44/64/44 45/65/45 64/81/71
f 64/81/71 45/65/45 65/82/72
f 45/65/45 46/66/46 65/82/72
f 65/82/72 46/66/46 66/83/73
f 46/66/46 47/67/47 66/83/73
f 66/83/73 47/67/47 67/84/74
f 47/67/47 48/68/48 67/84/74
f 67/84/74 48/68/48 68/85/75
f 48/68/48 49/86/76 68/85/75
f 68/85/75 49/86/76 69/87/77
f 49/86/76 50/88/78 69/87/77
f 69/87/77 50/88/78 70/89/79
f 50/88/78 51/90/80 70/89/79
f 70/89/79 51/90/80 71/91/81
f 51/90/80 52/70/59 71/91/81
f 71/91/81 52/70/59 72/92/82
f 52/70/59 53/69/60 72/92/82
f 72/92/82 53/69/60 73/93/83
f 53/69/60 54/71/61 73/93/83
f 73/93/83 54/71/61 74/94/84
f 54/71/61 55/72/62 74/94/84
f 74/94/84 55/72/62 75/95/85
f 55/72/62 56/73/63 75/95/85
f 75/95/85 56/73/63 76/96/86
f 56/73/63 57/74/64 76/96/86
f 76/96/86 57/74/64 77/97/87
f 57/74/64 58/75/65 77/97/87
f 77/97/87 58/75/65 78/98/88
f 58/75/65 59/76/66 78/98/88
f 78/98/88 59/76/66 79/99/89
f 59/76/66 60/77/67 79/99/89
f 79/99/89 60/77/67 80/100/90
f 60/77/67 41/62/41 80/100/90
f 80/100/90 41/62/41 61/79/68
s 3
f 2/1/91 1/2/92 81/3/93
f 3/4/94 2/1/91 81/3/93
f 4/5/95 3/4/94 81/3/93
f 5/6/96 4/5/95 81/3/93
f 6/7/97 5/6/96 81/3/93
f 7/8/98 6/7/97 81/3/93
f 8/9/99 7/8/98 81/3/93
f 9/10/100 8/9/99 81/3/93
f 10/11/101 9/10/100 81/3/93
f 11/12/102 10/11/101 81/3/93
f 12/13/103 11/12/102 81/3/93
f 13/14/104 12/13/103 81/3/93
f 14/15/105 13/14/104 81/3/93
f 15/16/106 14/15/105 81/3/93
f 16/17/107 15/16/106 81/3/93
f 17/18/108 16/17/107 81/3/93
f 18/19/109 17/18/108 81/3/93
f 19/20/110 18/19/109 81/3/93
f 20/125/111 19/20/110 81/3/93
f 1/2/92 20/125/111 81/3/93
s 4
f 93/111/112 94/112/113 95/113/114
s 5
f 62/114/115 63/115/116 82/116/117
f 63/115/116 64/117/118 82/116/117
f 64/117/118 65/118/119 82/116/117
f 65/118/119 66/119/120 82/116/117
f 66/119/120 67/120/121 82/116/117
f 67/120/121 68/121/122 82/116/117
s 6
f 99/122/123 100/123/124 101/124/125
f 100/123/124 102/126/126 101/124/125
f 102/126/126 103/127/127 101/124/125
f 103/127/127 104/128/128 101/124/125
s 7
f 72/129/129 73/130/130 82/116/131
f 73/130/130 74/131/132 82/116/131
f 74/131/132 75/132/133 82/116/131
f 75/132/133 76/133/134 82/116/131
f 76/133/134 77/134/135 82/116/131
f 77/134/135 78/135/136 82/116/131
s 4
f 96/136/137 97/137/138 95/113/114
f 97/137/138 98/138/139 95/113/114
f 98/138/139 93/111/112 95/113/114
s 9
f 28/139/140 29/140/141 83/101/142
f 83/101/142 29/140/141 84/102/143
s 10
f 48/142/144 86/104/145 49/141/146
f 49/141/146 86/104/145 85/103/147
s 11
f 48/142/148 28/139/149 86/104/150
f 86/104/150 28/139/149 83/101/151
s 9
f 29/140/141 30/143/152 84/102/143
f 84/102/143 30/143/152 87/105/153
s 10
f 49/141/146 85/103/147 50/144/154
f 50/144/154 85/103/147 88/106/155
s 9
f 31/145/156 89/107/157 30/143/152
f 30/143/152 89/107/157 87/105/153
s 10
f 51/146/158 50/144/154 90/108/159
f 90/108/159 50/144/154 88/106/155
s 9
f 32/147/160 91/109/161 31/145/156
f 31/145/156 91/109/161 89/107/157
s 13
f 32/147/162 52/148/163 91/109/164
f 91/109/164 52/148/163 92/110/165
s 10
f 52/148/166 51/146/158 92/110/167
f 92/110/167 51/146/158 90/108/159
s 1
f 61/149/68 62/114/69 93/111/168
f 93/111/168 62/114/69 94/112/169
s 14
f 62/114/170 82/116/171 94/112/172
f 94/112/172 82/116/171 95/113/173
s 1
f 78/135/88 79/150/89 96/136/174
f 96/136/174 79/150/89 97/137/175
s 15
f 82/116/176 78/135/177 95/113/178
f 95/113/178 78/135/177 96/136/179
s 1
f 79/150/89 80/151/90 97/137/175
f 97/137/175 80/151/90 98/138/180
f 80/151/90 61/149/68 98/138/180
f 98/138/180 61/149/68 93/111/168
f 68/121/75 69/152/77 99/122/181
f 99/122/181 69/152/77 100/123/182
s 16
f 82/116/183 68/121/184 101/124/185
f 101/124/185 68/121/184 99/122/186
s 1
f 69/152/77 70/153/79 100/123/182
f 100/123/182 70/153/79 102/126/187
f 70/153/79 71/154/81 102/126/187
f 102/126/187 71/154/81 103/127/188
f 71/154/81 72/129/82 103/127/188
f 103/127/188 72/129/82 104/128/189
s 17
f 72/129/190 82/116/191 104/128/192
f 104/128/192 82/116/191 101/124/193
