# This file uses centimeters as units for non-parametric coordinates.

mtllib Left_knee.mtl
g default
v 0.014735 -1.126429 -0.274261
v 0.002805 -0.812673 -0.043723
v -0.128268 -0.793948 -0.128994
v 0.310054 -0.726788 -0.197715
v 0.221988 -0.779089 -0.078086
v 0.233918 -1.092846 -0.308625
v -0.172044 -0.336638 0.038716
v -0.040970 -0.355363 0.123987
v -0.131275 -0.070112 0.160926
v 0.187883 -0.021210 0.110888
v 0.178213 -0.321779 0.089624
v 0.266279 -0.269478 -0.030004
v -0.215059 -0.265597 -0.166225
v -0.145653 0.040842 -0.145375
v -0.136564 -0.197489 -0.331453
v 0.082619 -0.163906 -0.365816
v 0.076860 0.074935 -0.180260
v 0.223263 -0.198437 -0.234945
v -0.171284 -0.722907 -0.333935
v -0.092015 -0.578705 -0.419860
v -0.028281 -1.055388 -0.479202
v 0.190902 -1.021805 -0.513565
v 0.127168 -0.545121 -0.454224
v 0.267038 -0.655747 -0.402655
v 0.203240 -1.150696 -0.560834
v -0.015943 -1.184279 -0.526470
v 0.246256 -1.221736 -0.355893
v 0.027073 -1.255320 -0.321529
v -0.073314 0.007302 0.272118
v -0.032997 -0.285608 0.243016
v 0.153000 -0.257110 0.213856
v 0.145869 0.040886 0.237754
vt 0.763204 0.804135
vt 0.868962 0.727440
vt 0.868962 0.809378
vt 0.763204 0.722211
vt 0.825626 0.722211
vt 0.934459 0.809378
vt 0.825626 0.804135
vt 0.934459 0.727440
vt 0.836221 0.809378
vt 0.836221 0.916660
vt 0.868962 0.916660
vt 0.832295 0.682079
vt 0.832295 0.632575
vt 0.868962 0.809378
vt 0.868962 0.727440
vt 0.934459 0.727440
vt 0.869226 0.632575
vt 0.875816 0.682079
vt 0.934459 0.809378
vt 0.836221 0.809378
vt 0.763204 0.911402
vt 0.762730 0.974458
vt 0.826100 0.974458
vt 0.825626 0.911402
vt 0.822370 0.663942
vt 0.885741 0.663942
vt 0.763204 0.722211
vt 0.763204 0.825692
vt 0.825626 0.825692
vt 0.868962 0.916660
vt 0.836221 0.916660
vt 0.858427 0.979725
vt 0.953895 0.979725
vt 0.934459 0.916660
vt 0.858427 0.979725
vt 0.825626 0.722211
vt 0.934459 0.916660
vt 0.953895 0.979725
vt 0.876146 0.663942
vt 0.831965 0.663942
vt 0.832295 0.650823
vt 0.875816 0.650823
vt 0.875816 0.650823
vt 0.832295 0.650823
vt 0.832295 0.614438
vt 0.875816 0.614438
vt 0.981773 0.916660
vt 0.967200 0.830937
vt 0.981773 0.916660
vt 0.967200 0.830937
vt 0.868962 0.697203
vt 0.934459 0.697203
vt 0.934459 0.697203
vt 0.868962 0.697203
vt 0.825626 0.911402
vt 0.763204 0.911402
vt 0.825626 0.691978
vt 0.763204 0.691978
vt 0.763204 0.691978
vt 0.825626 0.691978
vn -0.934939 -0.346549 0.076109
vn -0.909783 -0.412294 0.048039
vn -0.934939 -0.346549 0.076109
vn -0.909783 -0.412294 0.048039
vn 0.211932 -0.573419 0.791376
vn 0.209049 -0.511590 0.833411
vn 0.211932 -0.573419 0.791376
vn 0.209049 -0.511590 0.833411
vn -0.547079 -0.333877 0.767614
vn -0.547079 -0.333877 0.767614
vn -0.547079 -0.333877 0.767614
vn -0.547079 -0.333877 0.767614
vn 0.961274 -0.125610 -0.245306
vn 0.973297 -0.054169 -0.223065
vn 0.961274 -0.125610 -0.245306
vn 0.973297 -0.054169 -0.223065
vn 0.824188 -0.123771 0.552625
vn 0.824188 -0.123771 0.552626
vn 0.824188 -0.123771 0.552625
vn 0.824188 -0.123771 0.552625
vn -0.974111 0.047675 0.220985
vn -0.974871 0.162110 0.152800
vn -0.975566 0.150935 0.159656
vn -0.969760 0.211339 0.122075
vn 0.165644 -0.074898 0.983337
vn 0.165644 -0.074898 0.983337
vn 0.165644 -0.074898 0.983337
vn 0.165644 -0.074898 0.983337
vn 0.936955 0.340489 -0.078633
vn 0.889735 0.436737 -0.132788
vn 0.883785 0.446894 -0.138601
vn 0.855556 0.491014 -0.164099
vn -0.902357 -0.005508 -0.430954
vn -0.843600 0.096396 -0.528249
vn -0.886353 0.026150 -0.462272
vn -0.824188 0.123771 -0.552625
vn -0.212722 0.596264 -0.774092
vn -0.212723 0.596264 -0.774092
vn -0.212722 0.596264 -0.774092
vn -0.212723 0.596264 -0.774092
vn 0.692281 0.238823 -0.680963
vn 0.659118 0.262948 -0.704572
vn 0.580008 0.314522 -0.751443
vn 0.547079 0.333877 -0.767614
vn -0.175436 0.149275 -0.973108
vn -0.168979 0.099479 -0.980587
vn -0.175436 0.149275 -0.973108
vn -0.168979 0.099479 -0.980587
vn 0.194528 -0.321264 0.926795
vn 0.194528 -0.321264 0.926795
vn 0.194528 -0.321264 0.926795
vn 0.194528 -0.321264 0.926795
vn -0.089510 0.935088 0.342926
vn -0.089510 0.935088 0.342926
vn -0.089510 0.935088 0.342926
vn -0.089510 0.935088 0.342926
vn -0.181822 0.201936 -0.962373
vn -0.181822 0.201936 -0.962373
vn -0.181822 0.201936 -0.962373
vn -0.181822 0.201936 -0.962374
vn 0.089510 -0.935088 -0.342927
vn 0.089510 -0.935088 -0.342927
vn 0.089510 -0.935088 -0.342927
vn 0.089511 -0.935088 -0.342927
vn 0.976804 0.149666 -0.153144
vn 0.976804 0.149666 -0.153144
vn 0.976804 0.149666 -0.153144
vn 0.976804 0.149666 -0.153144
vn -0.976804 -0.149666 0.153144
vn -0.976804 -0.149666 0.153144
vn -0.976804 -0.149666 0.153144
vn -0.976804 -0.149666 0.153144
vn -0.516853 -0.519570 0.680375
vn -0.516853 -0.519570 0.680375
vn -0.516853 -0.519570 0.680375
vn 0.824928 -0.313982 0.470010
vn 0.824928 -0.313982 0.470010
vn 0.824928 -0.313982 0.470010
vn -0.551503 -0.276509 0.787012
vn -0.551503 -0.276509 0.787012
vn -0.551503 -0.276509 0.787012
vn 0.817236 -0.066790 0.572420
vn 0.817236 -0.066790 0.572420
vn 0.817236 -0.066790 0.572420
vn -0.912399 0.229703 -0.338769
vn -0.912399 0.229703 -0.338769
vn -0.912399 0.229703 -0.338769
vn 0.660210 0.470658 -0.585324
vn 0.660210 0.470658 -0.585324
vn 0.660210 0.470658 -0.585324
vn -0.725419 -0.011316 -0.688214
vn -0.725419 -0.011316 -0.688214
vn -0.725419 -0.011316 -0.688214
vn 0.456299 0.169747 -0.873486
vn 0.456299 0.169748 -0.873486
vn 0.456299 0.169747 -0.873486
vn -0.194528 0.321265 -0.926795
vn -0.194527 0.321265 -0.926795
vn 0.976805 0.149666 -0.153144
vn 0.976805 0.149666 -0.153144
vn 0.194528 -0.321264 0.926795
vn 0.194528 -0.321265 0.926794
vn -0.976804 -0.149666 0.153144
vn -0.976804 -0.149666 0.153144
vn -0.913425 -0.321493 0.249594
vn -0.900856 -0.286644 0.326027
vn -0.849837 -0.202158 0.486733
vn -0.821738 -0.167233 0.544776
vn 0.206213 -0.850185 0.484419
vn 0.206213 -0.850185 0.484419
vn 0.206213 -0.850185 0.484419
vn 0.206213 -0.850185 0.484419
vn 0.973880 -0.047048 0.222135
vn 0.955655 -0.012894 0.294208
vn 0.968697 -0.036032 0.245617
vn 0.948916 -0.002595 0.315519
vn -0.206213 0.850183 -0.484422
vn -0.206213 0.850183 -0.484422
vn -0.206213 0.850183 -0.484422
vn -0.206213 0.850183 -0.484422
s 1
g pCube7
usemtl lambert2SG
f 1/2/1 3/3/2 21/8/3
f 21/8/3 3/3/2 19/6/4
s 2
f 2/1/5 1/4/6 5/7/7
f 5/7/7 1/4/6 6/5/8
s 3
f 3/3/9 2/9/10 7/11/11
f 7/11/11 2/9/10 8/10/12
s 4
f 4/14/13 6/15/14 24/19/15
f 24/19/15 6/15/14 22/16/16
s 5
f 5/20/17 4/14/18 11/31/19
f 11/31/19 4/14/18 12/30/20
s 6
f 7/11/21 9/32/22 13/34/23
f 13/34/23 9/32/22 14/33/24
s 7
f 30/13/25 31/17/26 29/12/27
f 29/12/27 31/17/26 32/18/28
s 8
f 12/30/29 18/37/30 10/35/31
f 10/35/31 18/37/30 17/38/32
s 9
f 15/47/33 20/48/34 13/34/35
f 13/34/35 20/48/34 19/6/36
s 10
f 15/21/37 14/22/38 16/24/39
f 16/24/39 14/22/38 17/23/40
s 11
f 16/49/41 18/37/42 23/50/43
f 23/50/43 18/37/42 24/19/44
s 12
f 21/27/45 20/28/46 22/36/47
f 22/36/47 20/28/46 23/29/48
s 13
f 2/1/49 5/7/50 8/56/51
f 8/56/51 5/7/50 11/55/52
s 14
f 9/25/53 10/26/54 14/40/55
f 14/40/55 10/26/54 17/39/56
s 15
f 15/21/57 16/24/58 20/28/59
f 20/28/59 16/24/58 23/29/60
s 16
f 26/41/61 25/42/62 28/44/63
f 28/44/63 25/42/62 27/43/64
s 17
f 4/14/65 24/19/66 12/30/67
f 12/30/67 24/19/66 18/37/68
s 18
f 19/6/69 3/3/70 13/34/71
f 13/34/71 3/3/70 7/11/72
s off
f 1/2/73 2/9/74 3/3/75
f 4/14/76 5/20/77 6/15/78
f 7/11/79 8/10/80 9/32/81
f 10/35/82 11/31/83 12/30/84
f 13/34/85 14/33/86 15/47/87
f 16/49/88 17/38/89 18/37/90
f 19/6/91 20/48/92 21/8/93
f 22/16/94 23/50/95 24/19/96
s 12
f 21/27/45 22/36/47 26/58/97
f 26/58/97 22/36/47 25/57/98
s 4
f 22/16/16 6/15/14 25/52/99
f 25/52/99 6/15/14 27/51/100
s 2
f 6/5/8 1/4/6 27/60/101
f 27/60/101 1/4/6 28/59/102
s 1
f 1/2/1 21/8/3 28/54/103
f 28/54/103 21/8/3 26/53/104
s 19
f 8/45/105 30/13/106 9/25/107
f 9/25/107 30/13/106 29/12/108
s 20
f 11/46/109 31/17/110 8/45/111
f 8/45/111 31/17/110 30/13/112
s 21
f 11/46/113 10/26/114 31/17/115
f 31/17/115 10/26/114 32/18/116
s 22
f 10/26/117 9/25/118 32/18/119
f 32/18/119 9/25/118 29/12/120
g default
v 0.072976 -1.455255 -0.316859
v -0.029915 -1.418386 -0.299782
v 0.351474 -1.359949 -0.359576
v 0.263690 -1.426034 -0.346759
v -0.032716 -1.253330 -0.296369
v 0.057049 -1.243664 -0.211664
v 0.027517 -1.145446 -0.304039
v 0.218230 -1.116225 -0.333939
v 0.247762 -1.214443 -0.241564
v 0.306779 -1.201313 -0.349595
v -0.063470 -1.249866 -0.489142
v -0.003237 -1.141982 -0.496813
v -0.004453 -1.236736 -0.597173
v 0.186260 -1.207515 -0.627073
v 0.187476 -1.112760 -0.526713
v 0.276025 -1.197848 -0.542368
v -0.056096 -1.446088 -0.493845
v 0.027611 -1.455258 -0.606215
v 0.046795 -1.482957 -0.510922
v 0.237509 -1.453736 -0.540822
v 0.218325 -1.426037 -0.636115
v 0.325293 -1.387651 -0.553639
v 0.109990 -1.490076 -0.114803
v 0.300703 -1.460855 -0.144703
v 0.007099 -1.453207 -0.097725
v 0.094444 -1.281082 -0.009715
v -0.006603 -1.359825 -0.093861
v 0.388488 -1.394770 -0.157520
v 0.374785 -1.301388 -0.153656
v 0.285157 -1.251861 -0.039615
v 0.173519 -1.441106 0.199976
v 0.165699 -1.490851 0.101478
v 0.315038 -1.467970 0.078065
v 0.322858 -1.418224 0.176562
v 0.083491 -1.450813 0.115313
v 0.162262 -1.364385 0.203151
v 0.074408 -1.388916 0.117874
v 0.382139 -1.405054 0.068490
v 0.373057 -1.343157 0.071052
v 0.311601 -1.341503 0.179737
vt 0.134914 0.611110
vt 0.134914 0.626917
vt 0.210257 0.617347
vt 0.210257 0.601540
vt 0.301854 0.623315
vt 0.134914 0.626917
vt 0.134914 0.611110
vt 0.210257 0.601540
vt 0.415315 0.535728
vt 0.210257 0.617347
vt 0.134914 0.676614
vt 0.134914 0.706241
vt 0.210257 0.706241
vt 0.210257 0.676614
vt 0.097251 0.676614
vt 0.097251 0.676614
vt 0.134914 0.706241
vt 0.134914 0.676614
vt 0.210257 0.676614
vt 0.210257 0.706241
vt 0.247920 0.676614
vt 0.247920 0.609514
vt 0.247920 0.676614
vt 0.301854 0.599829
vt 0.247920 0.609514
vt 0.055440 0.601540
vt 0.055440 0.601540
vt 0.055440 0.646021
vt 0.017776 0.666246
vt 0.518685 0.518906
vt 0.518685 0.623087
vt 0.415315 0.623087
vt 0.518685 0.518906
vt 0.415315 0.535728
vt 0.415315 0.623087
vt 0.055440 0.617347
vt 0.518685 0.623087
vt 0.055440 0.646021
vt 0.055440 0.617347
vt 0.017776 0.666246
vt 0.369942 0.665918
vt 0.369942 0.623315
vt 0.272084 0.623315
vt 0.272084 0.665918
vt 0.345480 0.599829
vt 0.296546 0.599829
vt 0.340172 0.599829
vt 0.340172 0.623315
vt 0.282699 0.623315
vt 0.301854 0.658317
vt 0.282699 0.651554
vt 0.359327 0.623315
vt 0.359327 0.651554
vt 0.340172 0.658317
vt 0.345480 0.711373
vt 0.296546 0.711373
vt 0.296546 0.695968
vt 0.345480 0.695968
vn -0.306278 -0.935739 0.174893
vn -0.306279 -0.935738 0.174894
vn -0.306279 -0.935738 0.174893
vn -0.306280 -0.935737 0.174895
vn 0.202127 -0.880559 0.428672
vn 0.202127 -0.880560 0.428671
vn 0.202127 -0.880560 0.428671
vn 0.202127 -0.880560 0.428670
vn -0.671959 -0.128776 0.729306
vn -0.671957 -0.128777 0.729308
vn -0.671958 -0.128776 0.729307
vn -0.671957 -0.128777 0.729308
vn 0.604116 -0.796247 0.032162
vn 0.604117 -0.796247 0.032162
vn 0.604117 -0.796246 0.032163
vn 0.604118 -0.796245 0.032163
vn 0.866185 0.106898 0.488157
vn 0.866185 0.106898 0.488157
vn 0.866185 0.106898 0.488157
vn 0.866185 0.106898 0.488157
vn -0.859339 0.490152 0.145902
vn -0.859339 0.490152 0.145902
vn -0.859339 0.490153 0.145902
vn -0.859339 0.490153 0.145902
vn 0.008811 0.686485 0.727091
vn 0.008811 0.686485 0.727091
vn 0.008811 0.686485 0.727091
vn 0.008811 0.686485 0.727091
vn 0.680868 0.726143 -0.095572
vn 0.680869 0.726143 -0.095572
vn 0.680869 0.726143 -0.095572
vn 0.680869 0.726143 -0.095571
vn -0.876287 -0.021397 -0.481314
vn -0.845532 -0.053618 -0.531226
vn -0.824309 -0.073708 -0.561322
vn -0.802086 -0.093283 -0.589878
vn -0.213952 0.711579 -0.669239
vn -0.213952 0.711578 -0.669239
vn -0.213953 0.711578 -0.669239
vn -0.213953 0.711578 -0.669239
vn 0.658182 0.213715 -0.721888
vn 0.602328 0.144882 -0.784991
vn 0.624735 0.171657 -0.761735
vn 0.579323 0.118377 -0.806456
vn 0.099137 -0.949999 -0.296097
vn 0.099137 -0.949999 -0.296097
vn 0.099137 -0.949999 -0.296096
vn 0.099137 -0.949999 -0.296096
vn 0.157518 -0.017744 0.987357
vn 0.157517 -0.017744 0.987357
vn 0.157518 -0.017744 0.987357
vn 0.157517 -0.017744 0.987357
vn -0.145056 0.988577 0.040906
vn -0.145057 0.988577 0.040907
vn -0.145057 0.988577 0.040907
vn -0.145057 0.988577 0.040908
vn -0.157517 0.017744 -0.987357
vn -0.157517 0.017744 -0.987357
vn -0.157517 0.017744 -0.987357
vn -0.157517 0.017744 -0.987357
vn 0.168312 -0.978764 0.117012
vn 0.168312 -0.978764 0.117011
vn 0.168312 -0.978764 0.117011
vn 0.168312 -0.978764 0.117010
vn 0.952204 0.256975 -0.165144
vn 0.951273 0.265012 -0.157632
vn 0.951139 0.266093 -0.156617
vn 0.949692 0.276790 -0.146534
vn -0.989425 -0.040522 0.139267
vn -0.988574 -0.031110 0.147492
vn -0.988683 -0.032229 0.146516
vn -0.987371 -0.020007 0.157159
vn -0.330017 -0.831808 0.446300
vn -0.330017 -0.831808 0.446300
vn -0.330017 -0.831808 0.446300
vn 0.676490 -0.677591 0.288501
vn 0.676490 -0.677591 0.288501
vn 0.676490 -0.677591 0.288501
vn -0.649399 0.408185 0.641612
vn -0.649399 0.408185 0.641612
vn -0.649399 0.408185 0.641612
vn 0.662456 0.609188 0.435938
vn 0.662456 0.609188 0.435938
vn 0.662456 0.609188 0.435938
vn -0.814466 0.426780 -0.393071
vn -0.814466 0.426780 -0.393071
vn -0.814466 0.426780 -0.393071
vn 0.497389 0.627781 -0.598744
vn 0.497389 0.627781 -0.598744
vn 0.497389 0.627781 -0.598744
vn -0.359228 -0.913058 -0.193082
vn -0.359228 -0.913058 -0.193082
vn -0.359228 -0.913058 -0.193082
vn 0.535485 -0.775970 -0.333357
vn 0.535485 -0.775970 -0.333357
vn 0.535485 -0.775970 -0.333357
vn 0.119552 -0.974509 -0.189839
vn 0.119551 -0.974509 -0.189839
vn 0.119551 -0.974509 -0.189839
vn 0.119551 -0.974510 -0.189839
vn -0.505463 0.735128 0.451768
vn -0.669445 0.676986 0.305833
vn -0.588647 0.711580 0.383601
vn -0.716951 0.649551 0.253111
vn -0.992840 -0.019288 0.117882
vn -0.991437 -0.041142 0.123938
vn -0.987258 -0.083445 0.135495
vn -0.976804 -0.149666 0.153144
vn 0.942698 0.277276 -0.185574
vn 0.961657 0.215168 -0.170057
vn 0.949625 0.256269 -0.180384
vn 0.976804 0.149667 -0.153144
vn 0.379327 0.870696 0.313050
vn 0.441373 0.869399 0.222113
vn 0.501609 0.856416 0.122234
vn 0.537007 0.841683 0.056514
vn -0.117332 0.972355 0.201890
vn -0.117332 0.972355 0.201890
vn -0.117332 0.972355 0.201890
vn -0.117332 0.972355 0.201890
vn -0.349908 -0.931802 -0.096481
vn -0.349909 -0.931802 -0.096481
vn -0.349910 -0.931802 -0.096481
vn -0.349910 -0.931802 -0.096481
vn 0.561403 -0.792171 -0.239358
vn 0.561405 -0.792170 -0.239358
vn 0.561404 -0.792170 -0.239358
vn 0.561406 -0.792169 -0.239357
vn 0.145056 -0.988577 -0.040908
vn 0.145056 -0.988577 -0.040908
vn 0.145056 -0.988577 -0.040908
vn 0.145056 -0.988577 -0.040907
vn -0.741484 0.565341 0.361373
vn -0.660675 0.621276 0.421336
vn -0.717796 0.583258 0.380235
vn -0.616695 0.646315 0.449403
vn -0.930075 -0.150343 0.335197
vn -0.930075 -0.150343 0.335197
vn -0.930075 -0.150342 0.335197
vn -0.930075 -0.150342 0.335197
vn 0.989026 0.143703 0.034319
vn 0.989026 0.143702 0.034319
vn 0.989026 0.143703 0.034319
vn 0.989026 0.143701 0.034319
vn 0.616302 0.773382 0.148498
vn 0.595191 0.784435 0.174384
vn 0.544489 0.805933 0.232389
vn 0.505619 0.818277 0.273445
vn -0.080430 0.919253 0.385363
vn -0.080430 0.919253 0.385363
vn -0.080430 0.919253 0.385363
vn -0.080430 0.919253 0.385364
vn -0.316420 -0.940476 0.124030
vn -0.338916 -0.933109 0.120182
vn -0.388401 -0.914738 0.111349
vn -0.421068 -0.900905 0.105227
vn 0.599496 -0.800139 -0.019568
vn 0.653556 -0.755089 -0.052010
vn 0.616623 -0.786701 -0.029628
vn 0.677351 -0.732604 -0.066984
s 1
g pCube7 pCube8
usemtl lambert2SG
f 34/62/121 49/63/122 33/61/123
f 33/61/123 49/63/122 51/64/124
s 2
f 63/65/125 64/84/126 66/108/127
f 66/108/127 64/84/126 65/107/128
s 3
f 67/109/129 63/65/130 69/111/131
f 69/111/131 63/65/130 68/110/132
s 4
f 35/66/133 36/67/134 54/70/135
f 54/70/135 36/67/134 52/68/136
s 5
f 70/112/137 71/113/138 66/108/139
f 66/108/139 71/113/138 72/114/140
s 6
f 37/71/141 39/72/142 43/74/143
f 43/74/143 39/72/142 44/73/144
s 7
f 39/72/145 38/75/146 40/77/147
f 40/77/147 38/75/146 41/76/148
s 8
f 40/77/149 42/78/150 47/80/151
f 47/80/151 42/78/150 48/79/152
s 9
f 43/74/153 45/81/154 49/63/155
f 49/63/155 45/81/154 50/82/156
s 10
f 45/81/157 44/73/158 46/83/159
f 46/83/159 44/73/158 47/80/160
s 11
f 48/79/161 54/70/162 46/83/163
f 46/83/163 54/70/162 53/85/164
s 12
f 51/64/165 50/82/166 52/68/167
f 52/68/167 50/82/166 53/85/168
s 13
f 63/65/169 66/108/170 68/110/171
f 68/110/171 66/108/170 72/114/172
s 14
f 39/72/173 40/77/174 44/73/175
f 44/73/175 40/77/174 47/80/176
s 15
f 45/81/177 46/83/178 50/82/179
f 50/82/179 46/83/178 53/85/180
s 16
f 51/64/181 52/68/182 33/61/183
f 33/61/183 52/68/182 36/67/184
s 17
f 54/90/185 48/91/186 35/69/187
f 35/69/187 48/91/186 42/92/188
s 18
f 49/93/189 34/94/190 43/97/191
f 43/97/191 34/94/190 37/95/192
s off
f 64/84/193 63/65/194 67/109/195
f 70/112/196 66/108/197 65/107/198
f 37/71/199 38/75/200 39/72/201
f 40/77/202 41/76/203 42/78/204
f 43/74/205 44/73/206 45/81/207
f 46/83/208 47/80/209 48/79/210
f 49/63/211 50/82/212 51/64/213
f 52/68/214 53/85/215 54/70/216
s 19
f 33/61/217 36/67/218 55/87/219
f 55/87/219 36/67/218 56/86/220
s 20
f 37/71/221 59/88/222 38/75/223
f 38/75/223 59/88/222 58/89/224
s 21
f 37/71/225 34/62/226 59/88/227
f 59/88/227 34/62/226 57/96/228
s 22
f 42/78/229 61/98/230 35/66/231
f 35/66/231 61/98/230 60/99/232
s 23
f 42/78/233 41/76/234 61/98/235
f 61/98/235 41/76/234 62/100/236
s 24
f 41/115/237 38/116/238 62/118/239
f 62/118/239 38/116/238 58/117/240
s 25
f 34/62/241 33/61/242 57/96/243
f 57/96/243 33/61/242 55/87/244
s 26
f 35/66/245 60/99/246 36/67/247
f 36/67/247 60/99/246 56/86/248
s 27
f 55/106/249 56/105/250 64/84/251
f 64/84/251 56/105/250 65/107/252
s 28
f 59/104/253 69/111/254 58/117/255
f 58/117/255 69/111/254 68/110/256
s 29
f 59/104/257 57/103/258 69/111/259
f 69/111/259 57/103/258 67/109/260
s 30
f 61/101/261 71/113/262 60/102/263
f 60/102/263 71/113/262 70/112/264
s 31
f 61/101/265 62/118/266 71/113/267
f 71/113/267 62/118/266 72/114/268
s 32
f 62/118/269 58/117/270 72/114/271
f 72/114/271 58/117/270 68/110/272
s 33
f 57/103/273 55/106/274 67/109/275
f 67/109/275 55/106/274 64/84/276
s 34
f 60/102/277 70/112/278 56/105/279
f 56/105/279 70/112/278 65/107/280
