# This file uses centimeters as units for non-parametric coordinates.

mtllib Left_leg.mtl
g default
v 0.082600 -0.607800 0.533660
v 0.036450 -0.368674 0.472992
v -0.076401 -0.458283 0.407057
v 0.367297 -0.390299 0.337494
v 0.258321 -0.334679 0.438207
v 0.304471 -0.573804 0.498875
v -0.172597 -0.125194 0.119014
v -0.059746 -0.035585 0.184949
v -0.109148 0.081676 -0.015557
v 0.112723 0.115671 -0.050342
v 0.162125 -0.001590 0.150164
v 0.271101 -0.057210 0.049451
v -0.176472 -0.270453 -0.047667
v -0.115420 -0.153394 -0.285294
v -0.067496 -0.326074 -0.148380
v 0.154375 -0.292079 -0.183165
v 0.106451 -0.119399 -0.320079
v 0.267225 -0.202470 -0.117230
v -0.080277 -0.603542 0.240376
v 0.028699 -0.659163 0.139663
v 0.078725 -0.753059 0.366979
v 0.300596 -0.719064 0.332194
v 0.250570 -0.625167 0.104878
v 0.363421 -0.535558 0.170813
v 0.323652 -0.798899 0.401233
v 0.101781 -0.832894 0.436018
v 0.327528 -0.653640 0.567914
v 0.105657 -0.687635 0.602699
vt 0.651485 0.654242
vt 0.647412 0.697987
vt 0.613776 0.768903
vt 0.613776 0.768903
vt 0.647412 0.697987
vt 0.647412 0.768903
vt 0.710625 0.654242
vt 0.714698 0.697987
vt 0.714698 0.768903
vt 0.647412 0.910763
vt 0.613776 0.910763
vt 0.748334 0.768903
vt 0.714698 0.697987
vt 0.748334 0.768903
vt 0.748334 0.910763
vt 0.714698 0.910763
vt 0.647412 0.981679
vt 0.647412 0.981679
vt 0.613776 0.910763
vt 0.714698 0.981679
vt 0.748334 0.910763
vt 0.714698 0.981679
vt 0.710625 0.654242
vt 0.647412 0.910763
vt 0.647412 0.768903
vt 0.714698 0.910763
vt 0.714698 0.768903
vt 0.651485 0.691982
vt 0.651485 0.654242
vt 0.710625 0.691982
vt 0.710625 0.691982
vt 0.651485 0.691982
vn -0.855830 -0.379935 0.351005
vn -0.776269 -0.466203 0.424337
vn -0.855830 -0.379935 0.351005
vn -0.776269 -0.466203 0.424336
vn 0.109732 0.264280 0.958183
vn 0.083807 0.390925 0.916599
vn 0.109732 0.264279 0.958183
vn 0.083807 0.390925 0.916599
vn -0.668823 0.366283 0.646926
vn -0.668823 0.366283 0.646926
vn -0.668823 0.366283 0.646926
vn -0.668823 0.366283 0.646926
vn 0.968347 -0.198893 0.150815
vn 0.993449 -0.096588 0.061074
vn 0.968347 -0.198893 0.150815
vn 0.993449 -0.096587 0.061074
vn 0.693940 0.575086 0.433271
vn 0.693940 0.575086 0.433271
vn 0.693940 0.575086 0.433271
vn 0.693940 0.575086 0.433271
vn -0.968347 0.198893 -0.150815
vn -0.968347 0.198893 -0.150815
vn -0.968347 0.198893 -0.150815
vn -0.968347 0.198893 -0.150815
vn -0.050747 0.856605 0.513470
vn -0.050747 0.856606 0.513470
vn -0.050747 0.856606 0.513470
vn -0.050747 0.856606 0.513470
vn 0.776268 0.466204 -0.424337
vn 0.776268 0.466204 -0.424337
vn 0.776268 0.466204 -0.424337
vn 0.776268 0.466204 -0.424337
vn -0.693940 -0.575086 -0.433271
vn -0.693940 -0.575086 -0.433271
vn -0.693940 -0.575086 -0.433271
vn -0.693940 -0.575086 -0.433271
vn -0.026399 -0.625557 -0.779731
vn -0.026399 -0.625558 -0.779731
vn -0.026399 -0.625558 -0.779731
vn -0.026399 -0.625558 -0.779731
vn 0.668823 -0.366283 -0.646926
vn 0.668823 -0.366283 -0.646926
vn 0.668823 -0.366283 -0.646926
vn 0.668823 -0.366283 -0.646926
vn 0.050535 -0.856101 -0.514332
vn 0.078261 -0.915226 -0.395269
vn 0.050535 -0.856101 -0.514332
vn 0.078261 -0.915226 -0.395269
vn 0.017527 0.656899 0.753775
vn 0.017527 0.656899 0.753775
vn 0.017527 0.656899 0.753775
vn 0.017527 0.656899 0.753775
vn -0.213415 0.738975 -0.639038
vn -0.213415 0.738975 -0.639038
vn -0.213415 0.738975 -0.639038
vn -0.213415 0.738975 -0.639038
vn -0.017527 -0.656899 -0.753775
vn -0.017527 -0.656899 -0.753775
vn -0.017527 -0.656899 -0.753775
vn -0.017527 -0.656899 -0.753775
vn 0.213414 -0.738975 0.639039
vn 0.213415 -0.738975 0.639039
vn 0.213415 -0.738975 0.639039
vn 0.213415 -0.738975 0.639039
vn 0.976804 0.149666 -0.153144
vn 0.976804 0.149666 -0.153144
vn 0.976804 0.149666 -0.153144
vn 0.976804 0.149666 -0.153144
vn -0.976804 -0.149666 0.153144
vn -0.976804 -0.149666 0.153144
vn -0.976804 -0.149666 0.153144
vn -0.976804 -0.149666 0.153144
vn -0.560202 0.100493 0.822238
vn -0.560202 0.100493 0.822238
vn -0.560202 0.100493 0.822238
vn 0.725444 0.297481 0.620674
vn 0.725444 0.297480 0.620674
vn 0.725444 0.297480 0.620674
vn -0.700082 0.527672 0.481090
vn -0.700082 0.527672 0.481090
vn -0.700082 0.527672 0.481090
vn 0.625528 0.730783 0.273260
vn 0.625528 0.730783 0.273260
vn 0.625528 0.730783 0.273260
vn -0.700001 -0.552771 -0.452153
vn -0.700001 -0.552772 -0.452153
vn -0.700001 -0.552771 -0.452153
vn 0.662155 -0.344062 -0.665712
vn 0.662155 -0.344062 -0.665712
vn 0.662155 -0.344062 -0.665712
vn -0.583898 -0.787604 -0.196832
vn -0.583898 -0.787604 -0.196832
vn -0.583898 -0.787604 -0.196832
vn 0.701749 -0.590617 -0.398397
vn 0.701749 -0.590617 -0.398397
vn 0.701749 -0.590617 -0.398397
vn -0.017527 -0.656899 -0.753775
vn -0.017527 -0.656899 -0.753775
vn 0.976804 0.149666 -0.153144
vn 0.976804 0.149666 -0.153144
vn 0.017527 0.656899 0.753775
vn 0.017527 0.656899 0.753775
vn -0.976804 -0.149667 0.153144
vn -0.976804 -0.149666 0.153144
s 1
g pCube6
usemtl lambert2SG
f 1/2/1 3/3/2 21/5/3
f 21/5/3 3/3/2 19/4/4
s 2
f 2/6/5 1/2/6 5/9/7
f 5/9/7 1/2/6 6/8/8
s 3
f 3/3/9 2/6/10 7/11/11
f 7/11/11 2/6/10 8/10/12
s 4
f 4/12/13 6/8/14 24/14/15
f 24/14/15 6/8/14 22/13/16
s 5
f 5/9/17 4/12/18 11/16/19
f 11/16/19 4/12/18 12/15/20
s 6
f 7/11/21 9/17/22 13/19/23
f 13/19/23 9/17/22 14/18/24
s 7
f 9/17/25 8/10/26 10/20/27
f 10/20/27 8/10/26 11/16/28
s 8
f 12/15/29 18/21/30 10/20/31
f 10/20/31 18/21/30 17/22/32
s 9
f 13/19/33 15/24/34 19/4/35
f 19/4/35 15/24/34 20/25/36
s 10
f 15/24/37 14/18/38 16/26/39
f 16/26/39 14/18/38 17/22/40
s 11
f 16/26/41 18/21/42 23/27/43
f 23/27/43 18/21/42 24/14/44
s 12
f 21/5/45 20/25/46 22/13/47
f 22/13/47 20/25/46 23/27/48
s 13
f 2/6/49 5/9/50 8/10/51
f 8/10/51 5/9/50 11/16/52
s 14
f 9/17/53 10/20/54 14/18/55
f 14/18/55 10/20/54 17/22/56
s 15
f 15/24/57 16/26/58 20/25/59
f 20/25/59 16/26/58 23/27/60
s 16
f 26/1/61 25/7/62 28/29/63
f 28/29/63 25/7/62 27/23/64
s 17
f 4/12/65 24/14/66 12/15/67
f 12/15/67 24/14/66 18/21/68
s 18
f 19/4/69 3/3/70 13/19/71
f 13/19/71 3/3/70 7/11/72
s off
f 1/2/73 2/6/74 3/3/75
f 4/12/76 5/9/77 6/8/78
f 7/11/79 8/10/80 9/17/81
f 10/20/82 11/16/83 12/15/84
f 13/19/85 14/18/86 15/24/87
f 16/26/88 17/22/89 18/21/90
f 19/4/91 20/25/92 21/5/93
f 22/13/94 23/27/95 24/14/96
s 12
f 21/32/45 22/31/47 26/1/97
f 26/1/97 22/31/47 25/7/98
s 4
f 22/31/16 6/30/14 25/7/99
f 25/7/99 6/30/14 27/23/100
s 2
f 6/30/8 1/28/6 27/23/101
f 27/23/101 1/28/6 28/29/102
s 1
f 1/28/1 21/32/3 28/29/103
f 28/29/103 21/32/3 26/1/104
