# This file uses centimeters as units for non-parametric coordinates.

mtllib Player_Left_Arm.mtl
g default
v -0.103464 -0.109858 0.025195
v -0.113398 -0.083804 -0.053193
v -0.071315 -0.107794 -0.001319
v -0.103357 0.076695 -0.011935
v -0.133917 0.034338 -0.059992
v -0.134836 0.070772 0.014801
v 0.029704 -0.095114 -0.085862
v -0.004854 -0.068982 -0.123236
v 0.126811 -0.047477 -0.146907
v 0.106292 0.070665 -0.153705
v -0.025373 0.049159 -0.130035
v -0.002338 0.089375 -0.096478
v 0.106784 -0.076264 0.009067
v 0.153235 -0.036536 -0.036538
v 0.139554 -0.033667 0.054614
v 0.119035 0.084474 0.047815
v 0.132716 0.081605 -0.043336
v 0.074742 0.108225 -0.001549
v 0.005765 -0.088944 0.093610
v 0.038535 -0.046347 0.139156
v -0.042168 -0.059461 0.154853
v -0.062687 0.058681 0.148055
v 0.018016 0.071794 0.132358
v -0.026277 0.095545 0.082994
v -0.155200 -0.070230 -0.062355
v -0.150327 -0.120507 0.050683
v -0.171398 0.070064 0.043756
v -0.168540 0.006572 -0.066774
v -0.099362 0.032772 0.179722
v -0.086023 -0.044031 0.184141
v -0.212864 -0.080276 -0.062889
v -0.207878 -0.127731 0.098847
v -0.226175 0.063188 0.089599
v -0.226203 -0.003473 -0.067308
v -0.156913 0.025548 0.227886
v -0.143574 -0.051255 0.232305
v -0.385851 -0.152004 -0.038387
v -0.456221 -0.227362 0.120452
v -0.508337 0.072705 0.103185
v -0.413675 0.008193 -0.047606
v -0.417266 0.028240 0.276729
v -0.388768 -0.135842 0.286171
v -0.272783 -0.127479 -0.053534
v -0.309908 -0.198378 0.099606
v -0.360421 0.092455 0.082871
v -0.298670 0.021574 -0.062110
v -0.229852 0.061811 0.264072
v -0.200766 -0.105655 0.273709
v -0.547617 -0.170715 0.012111
v -0.568369 -0.232839 0.152864
v -0.616406 0.043742 0.136949
v -0.573262 -0.023057 0.003614
v -0.627706 -0.016833 0.243931
v -0.601438 -0.168073 0.252633
v -0.726987 -0.181543 0.071704
v -0.735609 -0.205664 0.143039
v -0.764559 -0.038978 0.133447
v -0.746954 -0.066581 0.065089
v -0.761426 -0.059515 0.206513
v -0.740975 -0.177266 0.213289
v -0.364962 0.082231 0.119000
v -0.280092 0.062313 0.236781
v -0.461108 0.069394 0.132204
v -0.401912 0.040492 0.245007
v -0.517007 0.055672 0.142271
v -0.462365 0.028993 0.246398
v -0.581848 0.038294 0.162529
v -0.588629 0.001949 0.226718
v -0.647688 0.017742 0.155878
v -0.653902 -0.015575 0.214719
v -0.729172 -0.027755 0.153953
v -0.727449 -0.039051 0.194139
v -0.336123 0.185964 0.062630
v -0.395290 0.178064 0.070756
v -0.376398 0.176739 0.082363
v -0.337940 0.181874 0.077081
v -0.468368 0.165280 0.109809
v -0.511596 0.153695 0.123314
v -0.497773 0.151516 0.133546
v -0.471836 0.158467 0.125443
v -0.627697 0.115396 0.142723
v -0.686959 0.082308 0.141322
v -0.672804 0.086797 0.149524
v -0.640210 0.104996 0.150294
v -0.256255 -0.129935 0.242650
v -0.319922 -0.184023 0.141090
v -0.365923 -0.147543 0.249920
v -0.405271 -0.200930 0.153250
v -0.428659 -0.154280 0.258206
v -0.470255 -0.210718 0.156012
v -0.559806 -0.174156 0.237524
v -0.539413 -0.214095 0.176000
v -0.625994 -0.181797 0.223204
v -0.608357 -0.216339 0.169994
v -0.700414 -0.186701 0.202221
v -0.697553 -0.201846 0.164754
vt 0.866424 0.132733
vt 0.796213 0.244094
vt 0.791443 0.255128
vt 0.892264 0.123623
vt 0.892264 0.123623
vt 0.821615 0.270499
vt 0.866424 0.132733
vt 0.835229 0.253889
vt 0.775856 0.248257
vt 0.765026 0.284419
vt 0.776298 0.290162
vt 0.791443 0.255128
vt 0.796213 0.244094
vt 0.835229 0.253889
vt 0.821615 0.270499
vt 0.775856 0.248257
vt 0.776298 0.290162
vt 0.765026 0.284419
vt 0.767931 0.323916
vt 0.798642 0.323641
vt 0.806470 0.305533
vt 0.767931 0.323916
vt 0.920041 0.117968
vt 0.920041 0.117968
vt 0.806470 0.305533
vt 0.798642 0.323641
vt 0.821553 0.313218
vt 0.836698 0.278183
vt 0.880812 0.325548
vt 0.821553 0.313218
vt 0.836698 0.278183
vt 0.911087 0.321210
vt 0.916037 0.305110
vt 0.873781 0.314705
vt 0.911087 0.321210
vt 0.880812 0.325548
vt 0.873781 0.314705
vt 0.918755 0.308303
vt 0.969114 0.331417
vt 0.969114 0.331417
vt 0.976838 0.317104
vt 0.976838 0.317104
vt 0.863675 0.277140
vt 0.916614 0.251278
vt 0.909504 0.205726
vt 0.857725 0.241913
vt 0.916614 0.251278
vt 0.863675 0.277140
vt 0.857725 0.241913
vt 0.909504 0.205726
vt 0.998084 0.273955
vt 0.998084 0.273955
vt 0.983679 0.216850
vt 0.983679 0.216850
vt 0.982717 0.261445
vt 0.929762 0.246705
vt 0.925141 0.217096
vt 0.973354 0.224327
vt 0.928869 0.284312
vt 0.867646 0.297488
vt 0.867646 0.297488
vt 0.930969 0.288507
vt 0.989671 0.296306
vt 0.989671 0.296306
vt 0.911066 0.170319
vt 0.861006 0.190054
vt 0.861006 0.190054
vt 0.911066 0.170319
vt 0.949024 0.156005
vt 0.949024 0.156005
vt 0.967640 0.206083
vt 0.923135 0.199409
vt 0.924072 0.178165
vt 0.946847 0.169576
vt 0.935253 0.150680
vt 0.914376 0.158553
vt 0.904034 0.132870
vt 0.919312 0.129760
vt 0.914756 0.264227
vt 0.911912 0.246006
vt 0.918166 0.250554
vt 0.920015 0.262398
vt 0.919511 0.221130
vt 0.920135 0.206967
vt 0.925338 0.210105
vt 0.924963 0.218603
vt 0.915007 0.169894
vt 0.907486 0.151215
vt 0.912194 0.154914
vt 0.916331 0.165187
vt 0.916614 0.251278
vt 0.998084 0.273955
vt 0.983679 0.216850
vt 0.909504 0.205726
vt 0.909504 0.205726
vt 0.983679 0.216850
vt 0.949024 0.156005
vt 0.911066 0.170319
vt 0.911066 0.170319
vt 0.949024 0.156005
vt 0.920041 0.117968
vt 0.892264 0.123623
vn 0.134776 -0.987087 0.086570
vn -0.049537 -0.930287 0.363473
vn 0.122366 -0.991579 0.042397
vn 0.015616 -0.905845 0.423321
vn -0.967876 -0.178302 -0.177270
vn -0.967876 -0.178303 -0.177270
vn -0.967875 -0.178304 -0.177271
vn -0.967875 -0.178304 -0.177271
vn -0.098964 -0.931343 -0.350438
vn -0.184128 -0.903130 -0.387882
vn -0.129233 -0.922359 -0.364079
vn -0.229168 -0.884449 -0.406488
vn -0.206541 0.978079 -0.026509
vn -0.244476 0.966654 -0.076237
vn -0.366356 0.893844 0.258508
vn -0.301301 0.897507 0.322022
vn -0.399443 0.798720 -0.449990
vn -0.424663 0.778625 -0.461958
vn -0.469431 0.739540 -0.482406
vn -0.505203 0.704858 -0.497941
vn 0.433091 -0.901236 -0.014355
vn 0.460364 -0.881345 -0.106283
vn 0.453433 -0.887552 -0.081552
vn 0.490799 -0.839888 -0.231742
vn -0.162861 -0.084850 -0.982994
vn -0.162861 -0.084850 -0.982994
vn -0.162861 -0.084850 -0.982994
vn -0.162861 -0.084851 -0.982994
vn 0.105173 0.986818 -0.123001
vn 0.130226 0.973374 -0.188636
vn 0.139317 0.967145 -0.212652
vn 0.184336 0.924633 -0.333278
vn 0.448232 -0.790698 0.416995
vn 0.448232 -0.790698 0.416995
vn 0.448232 -0.790698 0.416995
vn 0.448232 -0.790698 0.416995
vn 0.974065 0.177269 0.140615
vn 0.974065 0.177269 0.140615
vn 0.974065 0.177269 0.140615
vn 0.974065 0.177269 0.140615
vn 0.148240 0.936564 0.317604
vn 0.148240 0.936564 0.317604
vn 0.148238 0.936565 0.317604
vn 0.148237 0.936565 0.317603
vn 0.176551 0.087080 0.980432
vn 0.176551 0.087080 0.980432
vn 0.176551 0.087080 0.980432
vn 0.176551 0.087080 0.980432
vn -0.523428 -0.139281 -0.840609
vn -0.523428 -0.139281 -0.840609
vn -0.523428 -0.139281 -0.840609
vn -0.523428 -0.139281 -0.840609
vn 0.957652 0.152265 -0.244374
vn 0.957652 0.152265 -0.244374
vn 0.957652 0.152265 -0.244374
vn 0.957652 0.152264 -0.244374
vn 0.622986 0.152351 0.767253
vn 0.622986 0.152351 0.767253
vn 0.622986 0.152351 0.767253
vn 0.622986 0.152351 0.767253
vn -0.985175 -0.171449 -0.005947
vn -0.985175 -0.171450 -0.005945
vn -0.985175 -0.171449 -0.005946
vn -0.985175 -0.171450 -0.005945
vn -0.170847 0.983670 -0.056602
vn -0.170847 0.983670 -0.056602
vn -0.170847 0.983670 -0.056602
vn -0.170846 0.983671 -0.056602
vn 0.170845 -0.983671 0.056604
vn 0.170845 -0.983671 0.056603
vn 0.170845 -0.983671 0.056603
vn 0.170845 -0.983671 0.056603
vn -0.178694 -0.940236 -0.289870
vn -0.178694 -0.940236 -0.289870
vn -0.178694 -0.940236 -0.289870
vn -0.478682 0.786984 -0.389256
vn -0.478682 0.786984 -0.389256
vn -0.478681 0.786984 -0.389256
vn 0.026070 -0.807789 -0.588895
vn 0.026070 -0.807789 -0.588895
vn 0.026070 -0.807789 -0.588895
vn -0.235568 0.698639 -0.675582
vn -0.235568 0.698639 -0.675582
vn -0.235568 0.698639 -0.675582
vn 0.714592 -0.687564 0.128893
vn 0.714592 -0.687564 0.128893
vn 0.714592 -0.687564 0.128893
vn 0.439289 0.897555 0.037682
vn 0.439289 0.897555 0.037682
vn 0.439289 0.897555 0.037682
vn 0.238356 -0.788940 0.566357
vn 0.238356 -0.788940 0.566357
vn 0.238356 -0.788940 0.566357
vn -0.051686 0.881011 0.470263
vn -0.051686 0.881011 0.470263
vn -0.051686 0.881011 0.470263
vn -0.240862 -0.929743 -0.278503
vn -0.127164 -0.929699 -0.345672
vn 0.178408 -0.982583 0.051978
vn -0.533916 0.757539 -0.375592
vn -0.475339 0.776097 -0.414398
vn -0.141644 0.989552 -0.026912
vn 0.207777 -0.020188 -0.977968
vn 0.207778 -0.020187 -0.977968
vn 0.207778 -0.020188 -0.977968
vn 0.207779 -0.020187 -0.977968
vn 0.584657 0.147450 0.797769
vn 0.584656 0.147450 0.797769
vn 0.584657 0.147450 0.797769
vn 0.584656 0.147450 0.797769
vn -0.282407 0.876436 0.390007
vn 0.020341 -0.871659 0.489690
vn 0.145800 -0.910770 -0.386316
vn 0.133097 -0.915044 -0.380762
vn 0.081810 -0.911532 -0.403010
vn 0.009329 -0.910805 -0.412732
vn -0.161358 0.857754 -0.488080
vn -0.221549 0.835099 -0.503514
vn -0.174865 0.858100 -0.482790
vn -0.289366 0.808974 -0.511691
vn -0.115923 -0.077116 -0.990260
vn -0.115923 -0.077116 -0.990260
vn -0.219306 -0.093970 -0.971120
vn -0.216128 -0.093463 -0.971881
vn 0.055289 0.066929 0.996225
vn 0.055288 0.066929 0.996225
vn -0.057908 0.047325 0.997200
vn -0.056736 0.047532 0.997257
vn -0.143765 0.951351 0.272512
vn -0.122434 0.953883 0.274074
vn -0.132682 0.949186 0.285381
vn -0.104215 0.948917 0.297818
vn 0.180148 -0.907396 0.379711
vn 0.188093 -0.899971 0.393286
vn 0.205316 -0.902993 0.377425
vn 0.218074 -0.893428 0.392721
vn 0.160434 -0.899276 -0.406895
vn -0.070412 -0.951840 -0.298402
vn 0.065252 -0.928748 -0.364924
vn -0.111682 -0.954471 -0.276609
vn -0.144603 0.856387 -0.495673
vn -0.238665 0.859764 -0.451493
vn -0.367854 0.848552 -0.380320
vn -0.404824 0.841618 -0.357486
vn 0.018689 -0.054202 -0.998355
vn 0.018689 -0.054202 -0.998355
vn 0.018689 -0.054202 -0.998355
vn 0.018688 -0.054203 -0.998355
vn 0.622987 0.152352 0.767253
vn 0.622986 0.152352 0.767253
vn 0.622986 0.152352 0.767253
vn 0.622985 0.152352 0.767254
vn 0.069964 0.970858 0.229218
vn 0.069964 0.970858 0.229217
vn 0.069964 0.970858 0.229218
vn 0.069964 0.970858 0.229217
vn 0.375412 -0.870599 0.317999
vn 0.375413 -0.870599 0.317998
vn 0.375412 -0.870599 0.317999
vn 0.375413 -0.870599 0.317998
vn 0.575692 -0.779626 -0.246499
vn 0.586009 -0.808629 -0.052074
vn 0.564853 -0.788940 -0.241898
vn 0.566511 -0.819132 -0.089935
vn 0.278579 0.883929 -0.375583
vn 0.246626 0.898074 -0.364195
vn 0.246915 0.958971 -0.139309
vn 0.198137 0.966437 -0.163528
vn -0.096742 -0.073918 -0.992561
vn -0.096742 -0.073917 -0.992561
vn -0.096742 -0.073917 -0.992561
vn -0.096741 -0.073917 -0.992561
vn 0.493463 0.135148 0.859203
vn 0.493465 0.135147 0.859202
vn 0.493465 0.135147 0.859202
vn 0.493465 0.135147 0.859202
vn 0.451705 0.892014 0.016558
vn 0.262127 0.963209 0.059314
vn 0.710310 -0.701357 0.059653
vn 0.653695 -0.753646 0.068557
vn -0.060614 -0.903472 -0.424339
vn -0.084555 -0.910566 -0.404623
vn -0.352536 0.777315 -0.521056
vn -0.323139 0.674378 -0.663925
vn -0.296372 -0.106092 -0.949162
vn -0.296140 -0.106056 -0.949238
vn -0.201442 0.021363 0.979267
vn -0.199678 0.021690 0.979621
vn -0.239681 0.898208 0.368477
vn -0.223142 0.901781 0.370133
vn -0.226368 0.884134 0.408736
vn -0.272184 0.752768 0.599380
vn 0.068832 -0.879688 0.470544
vn 0.076317 -0.858088 0.507801
vn 0.107686 -0.874127 0.473610
vn 0.166420 -0.818734 0.549526
vn -0.102252 -0.918925 -0.380949
vn -0.132279 -0.934026 -0.331809
vn -0.397775 0.782603 -0.478860
vn -0.374671 0.696927 -0.611486
vn -0.307586 -0.107823 -0.945391
vn -0.307586 -0.107823 -0.945392
vn -0.271871 0.008155 0.962299
vn -0.271873 0.008155 0.962299
vn -0.436606 0.801859 0.407918
vn -0.421277 0.851071 0.313374
vn -0.417593 0.821966 0.387283
vn -0.380126 0.868586 0.317904
vn -0.156329 -0.861163 0.483694
vn -0.123722 -0.865924 0.484632
vn -0.132358 -0.895925 0.424028
vn -0.072818 -0.903800 0.421714
vn -0.092562 0.961068 0.260347
vn -0.092562 0.961068 0.260347
vn -0.092562 0.961068 0.260347
vn -0.092561 0.961068 0.260348
vn -0.165992 0.930822 0.325603
vn -0.176572 0.927861 0.328476
vn -0.130217 0.919176 0.371697
vn -0.130217 0.919182 0.371683
vn -0.130217 0.919178 0.371694
vn -0.130217 0.919188 0.371669
vn -0.294146 0.855293 0.426559
vn -0.392416 0.694450 0.603116
vn -0.462470 0.813354 0.352954
vn -0.462469 0.813345 0.352977
vn -0.462470 0.813353 0.352955
vn -0.462468 0.813337 0.352995
vn -0.426258 0.865926 0.261679
vn -0.404475 0.859873 0.311478
vn -0.109748 -0.182958 -0.976976
vn -0.109749 -0.182958 -0.976976
vn -0.109748 -0.182958 -0.976976
vn -0.109749 -0.182958 -0.976976
vn -0.379316 0.618745 0.687950
vn -0.379315 0.618745 0.687950
vn -0.379309 0.618743 0.687955
vn -0.379305 0.618743 0.687957
vn 0.078015 0.368537 0.926334
vn 0.078015 0.368537 0.926334
vn 0.078016 0.368537 0.926334
vn 0.078018 0.368537 0.926333
vn 0.969231 -0.240190 0.053862
vn 0.969230 -0.240190 0.053862
vn 0.969230 -0.240190 0.053868
vn 0.969230 -0.240190 0.053870
vn -0.343014 0.213540 -0.914736
vn -0.343014 0.213540 -0.914736
vn -0.343014 0.213540 -0.914736
vn -0.343015 0.213539 -0.914736
vn -0.453022 0.521494 0.723060
vn -0.453024 0.521494 0.723058
vn 0.291089 0.028635 0.956267
vn 0.291089 0.028635 0.956268
vn 0.291091 0.028635 0.956267
vn 0.291093 0.028634 0.956266
vn 0.916893 -0.398009 0.029944
vn 0.916893 -0.398009 0.029943
vn 0.916894 -0.398006 0.029929
vn 0.916895 -0.398005 0.029921
vn -0.019569 0.077243 -0.996820
vn -0.019570 0.077242 -0.996820
vn -0.547700 0.299706 0.781154
vn -0.547699 0.299706 0.781154
vn -0.547687 0.299703 0.781164
vn -0.547684 0.299702 0.781167
vn -0.062078 0.069040 0.995681
vn -0.062078 0.069040 0.995681
vn -0.062078 0.069040 0.995681
vn -0.062077 0.069040 0.995681
vn 0.510846 0.011232 0.859599
vn 0.510846 0.011232 0.859599
vn 0.510846 0.011232 0.859599
vn 0.510845 0.011232 0.859599
vn 0.181675 -0.905569 0.383326
vn 0.217865 -0.904871 0.365708
vn 0.143731 -0.891199 0.430239
vn 0.185077 -0.887149 0.422744
vn -0.000935 -0.851748 0.523951
vn 0.010726 -0.859076 0.511735
vn -0.097889 -0.905433 0.413048
vn -0.130538 -0.911898 0.389105
s 1
g pCube3
usemtl lambert2SG
f 3/3/1 19/6/2 1/2/3
f 1/2/3 19/6/2 21/8/4
s 2
f 55/1/5 56/4/6 58/7/7
f 58/7/7 56/4/6 57/5/8
s 3
f 2/9/9 8/10/10 3/3/11
f 3/3/11 8/10/10 7/11/12
s 4
f 4/12/13 6/13/14 24/15/15
f 24/15/15 6/13/14 22/14/16
s 5
f 5/16/17 4/12/18 11/18/19
f 11/18/19 4/12/18 12/17/20
s 6
f 9/19/21 14/20/22 7/11/23
f 7/11/23 14/20/22 13/21/24
s 7
f 9/19/25 8/10/26 10/22/27
f 10/22/27 8/10/26 11/18/28
s 8
f 10/22/29 12/17/30 17/26/31
f 17/26/31 12/17/30 18/25/32
s 9
f 13/21/33 15/27/34 19/6/35
f 19/6/35 15/27/34 20/28/36
s 10
f 15/27/37 14/20/38 16/30/39
f 16/30/39 14/20/38 17/26/40
s 11
f 16/30/41 18/25/42 23/31/43
f 23/31/43 18/25/42 24/15/44
s 12
f 21/8/45 20/28/46 22/14/47
f 22/14/47 20/28/46 23/31/48
s 13
f 2/9/49 5/16/50 8/10/51
f 8/10/51 5/16/50 11/18/52
s 14
f 9/19/53 10/22/54 14/20/55
f 14/20/55 10/22/54 17/26/56
s 15
f 15/27/57 16/30/58 20/28/59
f 20/28/59 16/30/58 23/31/60
s 16
f 60/23/61 59/24/62 56/4/63
f 56/4/63 59/24/62 57/5/64
s 17
f 4/12/65 24/15/66 12/17/67
f 12/17/67 24/15/66 18/25/68
s 18
f 19/6/69 3/3/70 13/21/71
f 13/21/71 3/3/70 7/11/72
s off
f 1/2/73 2/9/74 3/3/75
f 4/12/76 5/16/77 6/13/78
f 7/11/79 8/10/80 9/19/81
f 10/22/82 11/18/83 12/17/84
f 13/21/85 14/20/86 15/27/87
f 16/30/88 17/26/89 18/25/90
f 19/6/91 20/28/92 21/8/93
f 22/14/94 23/31/95 24/15/96
s 1
f 2/29/97 1/32/3 25/34/98
f 25/34/98 1/32/3 26/33/99
s 4
f 5/36/100 28/37/101 6/35/14
f 6/35/14 28/37/101 27/38/102
s 21
f 5/36/103 2/29/104 28/37/105
f 28/37/105 2/29/104 25/34/106
s 22
f 21/39/107 22/40/108 30/42/109
f 30/42/109 22/40/108 29/41/110
s 4
f 6/35/14 27/38/102 22/40/16
f 22/40/16 27/38/102 29/41/111
s 1
f 1/32/3 21/39/4 26/33/99
f 26/33/99 21/39/4 30/42/112
s 23
f 43/43/113 44/44/114 37/46/115
f 37/46/115 44/44/114 38/45/116
s 24
f 46/48/117 40/49/118 45/47/119
f 45/47/119 40/49/118 39/50/120
s 25
f 46/48/121 43/43/122 40/49/123
f 40/49/123 43/43/122 37/46/124
s 26
f 48/51/125 47/52/126 42/54/127
f 42/54/127 47/52/126 41/53/128
s 27
f 62/55/129 61/56/130 64/58/131
f 64/58/131 61/56/130 63/57/132
s 28
f 85/92/133 87/93/134 86/91/135
f 86/91/135 87/93/134 88/94/136
s 29
f 25/34/137 26/33/138 31/60/139
f 31/60/139 26/33/138 32/59/140
s 30
f 28/37/141 34/61/142 27/38/143
f 27/38/143 34/61/142 33/62/144
s 31
f 28/37/145 25/34/146 34/61/147
f 34/61/147 25/34/146 31/60/148
s 32
f 30/42/149 29/41/150 36/64/151
f 36/64/151 29/41/150 35/63/152
s 33
f 27/38/153 33/62/154 29/41/155
f 29/41/155 33/62/154 35/63/156
s 34
f 26/33/157 30/42/158 32/59/159
f 32/59/159 30/42/158 36/64/160
s 35
f 31/60/161 32/59/162 43/43/163
f 43/43/163 32/59/162 44/44/164
s 27
f 34/61/165 46/48/166 33/62/167
f 33/62/167 46/48/166 45/47/168
s 37
f 34/61/169 31/60/170 46/48/171
f 46/48/171 31/60/170 43/43/172
s 38
f 36/64/173 35/63/174 48/51/175
f 48/51/175 35/63/174 47/52/176
s 27
f 35/63/177 33/62/167 47/52/178
f 47/52/178 33/62/167 45/47/168
s 35
f 36/64/179 48/51/180 32/59/162
f 32/59/162 48/51/180 44/44/164
s 23
f 37/46/115 38/45/116 49/66/181
f 49/66/181 38/45/116 50/65/182
s 24
f 40/49/118 52/67/183 39/50/120
f 39/50/120 52/67/183 51/68/184
s 25
f 40/49/123 37/46/124 52/67/185
f 52/67/185 37/46/124 49/66/186
s 26
f 42/54/127 41/53/128 54/70/187
f 54/70/187 41/53/128 53/69/188
s 27
f 66/71/189 65/72/190 68/74/191
f 68/74/191 65/72/190 67/73/192
s 28
f 89/96/193 91/97/194 90/95/195
f 90/95/195 91/97/194 92/98/196
s 23
f 49/66/181 50/65/182 55/1/197
f 55/1/197 50/65/182 56/4/198
s 24
f 52/67/183 58/7/199 51/68/184
f 51/68/184 58/7/199 57/5/200
s 25
f 52/67/185 49/66/186 58/7/201
f 58/7/201 49/66/186 55/1/202
s 26
f 54/70/187 53/69/188 60/23/203
f 60/23/203 53/69/188 59/24/204
s 27
f 69/76/205 71/77/206 70/75/207
f 70/75/207 71/77/206 72/78/208
s 28
f 94/99/209 93/100/210 96/102/211
f 96/102/211 93/100/210 95/101/212
s 27
f 47/52/178 45/47/168 62/55/129
f 62/55/129 45/47/168 61/56/130
s 43
f 74/80/213 75/81/214 73/79/215
f 73/79/215 75/81/214 76/82/216
s 27
f 39/50/217 41/53/218 63/57/132
f 63/57/132 41/53/218 64/58/131
f 47/52/178 62/55/129 41/53/218
f 41/53/218 62/55/129 64/58/131
f 41/53/218 39/50/217 66/71/189
f 66/71/189 39/50/217 65/72/190
s 45
f 77/83/219 78/84/220 80/86/221
f 80/86/221 78/84/220 79/85/222
s 27
f 53/69/223 68/74/191 51/68/224
f 51/68/224 68/74/191 67/73/192
f 41/53/218 66/71/189 53/69/223
f 53/69/223 66/71/189 68/74/191
f 51/68/224 69/76/205 53/69/223
f 53/69/223 69/76/205 70/75/207
s 46
f 81/87/225 82/88/226 84/90/227
f 84/90/227 82/88/226 83/89/228
s 27
f 57/5/229 59/24/230 71/77/206
f 71/77/206 59/24/230 72/78/208
f 59/24/230 53/69/223 72/78/208
f 72/78/208 53/69/223 70/75/207
s 47
f 39/50/231 74/80/232 45/47/233
f 45/47/233 74/80/232 73/79/234
s 48
f 39/50/235 63/57/236 74/80/237
f 74/80/237 63/57/236 75/81/238
s 49
f 63/57/239 61/56/240 75/81/241
f 75/81/241 61/56/240 76/82/242
s 50
f 61/56/243 45/47/244 76/82/245
f 76/82/245 45/47/244 73/79/246
s 51
f 51/68/247 78/84/248 39/50/249
f 39/50/249 78/84/248 77/83/250
s 27
f 51/68/224 67/73/192 78/84/251
f 78/84/251 67/73/192 79/85/252
s 52
f 67/73/253 65/72/254 79/85/255
f 79/85/255 65/72/254 80/86/256
s 53
f 65/72/257 39/50/258 80/86/259
f 80/86/259 39/50/258 77/83/260
s 24
f 57/5/200 82/88/261 51/68/184
f 51/68/184 82/88/261 81/87/262
s 54
f 57/5/263 71/77/264 82/88/265
f 82/88/265 71/77/264 83/89/266
s 55
f 71/77/267 69/76/268 83/89/269
f 83/89/269 69/76/268 84/90/270
s 56
f 69/76/271 51/68/272 84/90/273
f 84/90/273 51/68/272 81/87/274
s 28
f 48/51/275 85/92/133 44/44/276
f 44/44/276 85/92/133 86/91/135
f 48/51/275 42/54/277 85/92/133
f 85/92/133 42/54/277 87/93/134
f 38/45/278 88/94/136 42/54/277
f 42/54/277 88/94/136 87/93/134
f 38/45/278 44/44/276 88/94/136
f 88/94/136 44/44/276 86/91/135
f 42/54/277 89/96/193 38/45/278
f 38/45/278 89/96/193 90/95/195
f 42/54/277 54/70/279 89/96/193
f 89/96/193 54/70/279 91/97/194
f 54/70/279 50/65/280 91/97/194
f 91/97/194 50/65/280 92/98/196
f 38/45/278 90/95/195 50/65/280
f 50/65/280 90/95/195 92/98/196
f 50/65/280 54/70/279 94/99/209
f 94/99/209 54/70/279 93/100/210
f 60/23/281 95/101/212 54/70/279
f 54/70/279 95/101/212 93/100/210
f 56/4/282 96/102/211 60/23/281
f 60/23/281 96/102/211 95/101/212
f 50/65/280 94/99/209 56/4/282
f 56/4/282 94/99/209 96/102/211
