# This file uses centimeters as units for non-parametric coordinates.

mtllib Player_Right_Arm.mtl
g default
v -0.145334 -0.041977 -0.022897
v -0.131750 -0.043026 0.059180
v -0.128896 -0.009127 -0.003110
v 0.014299 -0.120566 0.044346
v -0.040052 -0.114389 0.089570
v -0.005135 -0.151086 0.023567
v -0.071943 0.091480 0.061292
v -0.068453 0.059300 0.108476
v 0.014525 0.166407 0.109610
v 0.106223 0.095044 0.140000
v 0.023245 -0.012062 0.138866
v 0.071252 -0.019959 0.108749
v -0.012366 0.123979 -0.042161
v 0.042819 0.155940 -0.000341
v 0.043165 0.120186 -0.085344
v 0.134863 0.048824 -0.054954
v 0.134516 0.084577 0.030049
v 0.130829 0.012539 0.005295
v -0.069319 0.023371 -0.106564
v -0.013788 0.019579 -0.149746
v -0.064529 -0.046401 -0.151579
v 0.027169 -0.117764 -0.121189
v 0.077910 -0.051783 -0.119357
v 0.073876 -0.088068 -0.059107
v -0.141290 -0.082476 0.078373
v -0.176585 -0.082961 -0.040300
v -0.022472 -0.188917 0.002500
v -0.081679 -0.128868 0.098129
v -0.011900 -0.144485 -0.149094
v -0.071512 -0.098093 -0.168850
v -0.178733 -0.126358 0.088309
v -0.209031 -0.140277 -0.076990
v -0.053354 -0.243471 -0.032422
v -0.119122 -0.172750 0.108065
v -0.044346 -0.201802 -0.185784
v -0.103957 -0.155410 -0.205540
v -0.325724 -0.244924 0.085888
v -0.417854 -0.308669 -0.066785
v -0.175498 -0.499648 0.008812
v -0.201383 -0.341690 0.127095
v -0.169180 -0.435429 -0.182394
v -0.296535 -0.336316 -0.224601
v -0.248956 -0.157099 0.082871
v -0.320963 -0.193413 -0.069946
v -0.095227 -0.369089 0.004866
v -0.133266 -0.247133 0.121212
v -0.047426 -0.289637 -0.200619
v -0.177408 -0.188480 -0.243697
v -0.419898 -0.385518 0.065087
v -0.476789 -0.409024 -0.077435
v -0.242777 -0.579014 -0.007577
v -0.305290 -0.474710 0.103069
v -0.314690 -0.583876 -0.117723
v -0.432078 -0.492521 -0.156627
v -0.515551 -0.546992 0.040209
v -0.537064 -0.560776 -0.031148
v -0.407688 -0.661461 0.011729
v -0.426321 -0.616434 0.069781
v -0.420157 -0.667430 -0.062965
v -0.511551 -0.596303 -0.093255
v -0.104486 -0.377157 -0.030907
v -0.073415 -0.325513 -0.164472
v -0.162807 -0.455700 -0.027308
v -0.152555 -0.420278 -0.152625
v -0.189603 -0.512218 -0.026521
v -0.192546 -0.466315 -0.144256
v -0.248307 -0.550712 -0.038593
v -0.279852 -0.555383 -0.105454
v -0.299231 -0.595019 -0.022935
v -0.328147 -0.599300 -0.084224
v -0.379296 -0.641972 -0.013026
v -0.386154 -0.645255 -0.054107
v -0.225646 -0.215056 -0.208528
v -0.311778 -0.218016 -0.104278
v -0.297122 -0.303758 -0.197071
v -0.369913 -0.287170 -0.102381
v -0.332179 -0.353559 -0.194356
v -0.409014 -0.336049 -0.094406
v -0.418022 -0.452488 -0.151305
v -0.446339 -0.399607 -0.101150
v -0.454900 -0.499137 -0.129178
v -0.481312 -0.448708 -0.082138
v -0.501163 -0.560273 -0.092780
v -0.516058 -0.538627 -0.055988
v -0.342869 -0.081508 -0.121684
v -0.394481 -0.136668 -0.114028
v -0.328807 -0.099639 -0.155532
v -0.359775 -0.132735 -0.150938
v -0.430047 -0.200289 -0.139593
v -0.452995 -0.256724 -0.155692
v -0.417125 -0.222688 -0.167832
v -0.431659 -0.258429 -0.178027
v -0.520290 -0.365090 -0.154725
v -0.547420 -0.453780 -0.126425
v -0.524111 -0.392673 -0.157760
v -0.539858 -0.445609 -0.141789
vt 0.866424 0.132733
vt 0.796213 0.244094
vt 0.791443 0.255128
vt 0.892264 0.123623
vt 0.892286 0.125474
vt 0.821615 0.270499
vt 0.866424 0.132733
vt 0.835229 0.253889
vt 0.775856 0.248257
vt 0.765026 0.284419
vt 0.776298 0.290162
vt 0.791443 0.255128
vt 0.796213 0.244094
vt 0.835229 0.253889
vt 0.821615 0.270499
vt 0.775856 0.248257
vt 0.776298 0.290162
vt 0.765026 0.284419
vt 0.767931 0.323916
vt 0.798642 0.323641
vt 0.806470 0.305533
vt 0.767931 0.323916
vt 0.920041 0.117968
vt 0.920041 0.117968
vt 0.806470 0.305533
vt 0.798642 0.323641
vt 0.821553 0.313218
vt 0.836698 0.278183
vt 0.880812 0.325548
vt 0.821553 0.313218
vt 0.836698 0.278183
vt 0.911087 0.321210
vt 0.916037 0.305110
vt 0.873781 0.314705
vt 0.911087 0.321210
vt 0.880812 0.325548
vt 0.873781 0.314705
vt 0.918755 0.308303
vt 0.969114 0.331417
vt 0.969114 0.331417
vt 0.976838 0.317104
vt 0.976838 0.317104
vt 0.863675 0.277140
vt 0.916614 0.251278
vt 0.909504 0.205726
vt 0.857725 0.241913
vt 0.916786 0.254622
vt 0.863675 0.277140
vt 0.857725 0.241913
vt 0.913547 0.215412
vt 0.998084 0.273955
vt 0.998084 0.273955
vt 0.983679 0.216850
vt 0.983679 0.216850
vt 0.982717 0.261445
vt 0.929826 0.246493
vt 0.925726 0.216778
vt 0.973354 0.224327
vt 0.928869 0.284312
vt 0.867646 0.297488
vt 0.867646 0.297488
vt 0.930969 0.288507
vt 0.989671 0.296306
vt 0.989671 0.296306
vt 0.911066 0.170319
vt 0.861006 0.190054
vt 0.861006 0.190054
vt 0.915219 0.188015
vt 0.949024 0.156005
vt 0.949024 0.156005
vt 0.967640 0.206083
vt 0.924049 0.209006
vt 0.924187 0.179132
vt 0.946847 0.169576
vt 0.935253 0.150680
vt 0.914732 0.160376
vt 0.904074 0.132983
vt 0.919312 0.129760
vt 0.916614 0.251278
vt 0.998084 0.273955
vt 0.983679 0.216850
vt 0.909504 0.205726
vt 0.909504 0.205726
vt 0.983679 0.216850
vt 0.949024 0.156005
vt 0.911066 0.170319
vt 0.911066 0.170319
vt 0.949024 0.156005
vt 0.920041 0.117968
vt 0.892264 0.123623
vt 0.909504 0.205726
vt 0.916614 0.251278
vt 0.916614 0.251278
vt 0.909504 0.205726
vt 0.911066 0.170319
vt 0.909504 0.205726
vt 0.911066 0.170319
vt 0.892264 0.123623
vt 0.911066 0.170319
vt 0.892264 0.123623
vn -0.782882 0.557786 -0.275630
vn -0.811305 0.305803 -0.498266
vn -0.795215 0.560481 -0.231288
vn -0.754628 0.334369 -0.564566
vn -0.645496 -0.689816 0.327855
vn -0.645495 -0.689816 0.327855
vn -0.645495 -0.689816 0.327855
vn -0.645495 -0.689816 0.327856
vn -0.873462 0.443354 0.201252
vn -0.893378 0.367424 0.258602
vn -0.881461 0.416941 0.221782
vn -0.900594 0.325194 0.288408
vn 0.742421 -0.629261 0.229876
vn 0.711085 -0.643490 0.283336
vn 0.604528 -0.796054 -0.029043
vn 0.643359 -0.758690 -0.102362
vn 0.469358 -0.601682 0.646283
vn 0.438789 -0.610528 0.659332
vn 0.381613 -0.624822 0.681152
vn 0.332979 -0.634818 0.697231
vn -0.565163 0.794801 -0.221095
vn -0.539077 0.831508 -0.134131
vn -0.546633 0.822379 -0.157749
vn -0.494468 0.869117 -0.011734
vn -0.204993 0.148570 0.967422
vn -0.204993 0.148570 0.967422
vn -0.204993 0.148570 0.967422
vn -0.204993 0.148570 0.967422
vn 0.900286 -0.345666 0.264575
vn 0.897760 -0.301702 0.320941
vn 0.895664 -0.285061 0.341360
vn 0.875098 -0.196732 0.442155
vn -0.439809 0.647412 -0.622435
vn -0.439810 0.647413 -0.622434
vn -0.439811 0.647414 -0.622432
vn -0.439811 0.647414 -0.622432
vn 0.645802 0.704720 -0.293786
vn 0.645802 0.704719 -0.293786
vn 0.645802 0.704720 -0.293787
vn 0.645802 0.704720 -0.293787
vn 0.900840 -0.395928 -0.178126
vn 0.900840 -0.395928 -0.178126
vn 0.900840 -0.395927 -0.178126
vn 0.900840 -0.395927 -0.178127
vn 0.213610 -0.137406 -0.967208
vn 0.213610 -0.137406 -0.967208
vn 0.213610 -0.137406 -0.967208
vn 0.213610 -0.137406 -0.967208
vn -0.424388 -0.166278 0.890083
vn -0.424388 -0.166278 0.890083
vn -0.424388 -0.166278 0.890083
vn -0.424388 -0.166278 0.890083
vn 0.596232 0.799077 0.077356
vn 0.596232 0.799076 0.077356
vn 0.596232 0.799077 0.077356
vn 0.596232 0.799077 0.077356
vn 0.481525 0.262664 -0.836147
vn 0.481524 0.262665 -0.836147
vn 0.481524 0.262665 -0.836147
vn 0.481524 0.262666 -0.836147
vn -0.639389 -0.750592 0.166715
vn -0.639389 -0.750592 0.166715
vn -0.639389 -0.750592 0.166715
vn -0.639389 -0.750592 0.166715
vn 0.763495 -0.594180 0.253032
vn 0.763496 -0.594179 0.253032
vn 0.763496 -0.594179 0.253032
vn 0.763496 -0.594179 0.253032
vn -0.763496 0.594179 -0.253033
vn -0.763496 0.594179 -0.253032
vn -0.763496 0.594179 -0.253032
vn -0.763496 0.594180 -0.253031
vn -0.917763 0.364964 0.156562
vn -0.917763 0.364964 0.156562
vn -0.917763 0.364964 0.156562
vn 0.422850 -0.678353 0.600862
vn 0.422850 -0.678353 0.600862
vn 0.422850 -0.678353 0.600862
vn -0.716470 0.550531 0.428470
vn -0.716470 0.550531 0.428470
vn -0.716470 0.550531 0.428470
vn 0.452776 -0.359418 0.815973
vn 0.452776 -0.359418 0.815973
vn 0.452776 -0.359419 0.815973
vn -0.232647 0.896148 -0.377881
vn -0.232647 0.896148 -0.377881
vn -0.232647 0.896148 -0.377881
vn 0.997671 -0.061334 0.029860
vn 0.997671 -0.061334 0.029860
vn 0.997671 -0.061334 0.029860
vn -0.535158 0.431722 -0.726100
vn -0.535158 0.431722 -0.726100
vn -0.535158 0.431722 -0.726100
vn 0.761008 -0.577001 -0.296539
vn 0.761008 -0.577001 -0.296539
vn 0.761008 -0.577001 -0.296539
vn -0.939062 0.304601 0.159315
vn -0.885841 0.417539 0.202355
vn -0.759024 0.601220 -0.249833
vn 0.370560 -0.714584 0.593342
vn 0.413805 -0.664093 0.622693
vn 0.784652 -0.579705 0.219690
vn 0.035838 0.430181 0.902031
vn 0.035839 0.430182 0.902031
vn 0.035838 0.430181 0.902031
vn 0.035839 0.430182 0.902031
vn 0.459757 0.224925 -0.859088
vn 0.459757 0.224925 -0.859088
vn 0.459757 0.224925 -0.859088
vn 0.459757 0.224925 -0.859088
vn 0.638019 -0.749808 -0.175270
vn -0.719277 0.305615 -0.623891
vn -0.735588 0.649578 0.192246
vn -0.745329 0.639463 0.188605
vn -0.768975 0.600017 0.220584
vn -0.804669 0.499111 0.321552
vn 0.637089 -0.418685 0.647163
vn 0.580793 -0.433967 0.688733
vn 0.649076 -0.392431 0.651689
vn 0.517098 -0.465307 0.718400
vn -0.175294 0.186427 0.966704
vn -0.175294 0.186427 0.966704
vn -0.240391 0.102174 0.965284
vn -0.238408 0.104812 0.965493
vn 0.136581 -0.234382 -0.962502
vn 0.136581 -0.234382 -0.962502
vn 0.063283 -0.321084 -0.944934
vn 0.064049 -0.320206 -0.945181
vn 0.765891 -0.638488 -0.075794
vn 0.778785 -0.622041 -0.080988
vn 0.770197 -0.631320 -0.090733
vn 0.873783 -0.477021 -0.094630
vn -0.676444 0.484970 -0.554280
vn -0.665255 0.485203 -0.567463
vn -0.662827 0.499705 -0.557634
vn -0.643283 0.497784 -0.581720
vn -0.719406 0.661685 0.211253
vn -0.874314 0.464124 0.142001
vn -0.790170 0.584598 0.184059
vn -0.896029 0.425013 0.128441
vn 0.643858 -0.401977 0.651046
vn 0.602201 -0.494161 0.627024
vn 0.531805 -0.615926 0.581222
vn 0.508562 -0.649632 0.565104
vn -0.088830 0.291458 0.952450
vn -0.088830 0.291458 0.952450
vn -0.088830 0.291458 0.952450
vn -0.088830 0.291458 0.952450
vn 0.481525 0.262665 -0.836146
vn 0.481525 0.262665 -0.836147
vn 0.481525 0.262665 -0.836147
vn 0.481525 0.262665 -0.836147
vn 0.887005 -0.456138 -0.071833
vn 0.887005 -0.456138 -0.071833
vn 0.887005 -0.456138 -0.071833
vn 0.887005 -0.456138 -0.071832
vn -0.550321 0.648329 -0.526133
vn -0.550322 0.648328 -0.526134
vn -0.550322 0.648328 -0.526134
vn -0.550322 0.648328 -0.526134
vn -0.400786 0.916164 -0.003690
vn -0.410778 0.889861 -0.198518
vn -0.414011 0.910240 -0.007616
vn -0.431523 0.887813 -0.159924
vn 0.884631 -0.087256 0.458055
vn 0.881545 -0.123795 0.455579
vn 0.945941 -0.208607 0.248353
vn 0.926866 -0.247301 0.282420
vn -0.163087 0.201713 0.965772
vn -0.163089 0.201712 0.965771
vn -0.163088 0.201712 0.965771
vn -0.163089 0.201712 0.965771
vn 0.406839 0.138236 -0.902980
vn 0.406839 0.138236 -0.902980
vn 0.406839 0.138236 -0.902980
vn 0.406839 0.138235 -0.902980
vn 0.997974 -0.042932 0.046957
vn 0.967375 -0.247501 0.054115
vn -0.250279 0.916374 -0.312442
vn -0.323283 0.890937 -0.318935
vn -0.834027 0.481145 0.269996
vn -0.810053 0.451771 0.373787
vn 0.434292 -0.510810 0.741932
vn 0.430780 -0.560690 0.707146
vn -0.288140 0.037233 0.956864
vn -0.287998 0.037431 0.956899
vn -0.031598 -0.425704 -0.904311
vn -0.030419 -0.424455 -0.904938
vn 0.634813 -0.734510 -0.239808
vn 0.707327 -0.656010 -0.263324
vn 0.643571 -0.705275 -0.297327
vn 0.671161 -0.632408 -0.386786
vn -0.703331 0.355104 -0.615814
vn -0.679241 0.342791 -0.648942
vn -0.692024 0.367170 -0.621521
vn -0.583000 0.372592 -0.722002
vn -0.865916 0.442358 0.233472
vn -0.847322 0.431140 0.310103
vn 0.413764 -0.581607 0.700380
vn 0.415520 -0.687069 0.596052
vn -0.295031 0.027623 0.955088
vn -0.295031 0.027623 0.955089
vn -0.078980 -0.474769 -0.876559
vn -0.078980 -0.474769 -0.876559
vn 0.388709 -0.906441 -0.165137
vn 0.542966 -0.836059 -0.078695
vn 0.523399 -0.837732 -0.155749
vn 0.578853 -0.810663 -0.088061
vn -0.786676 0.147384 -0.599515
vn -0.788139 0.181338 -0.588178
vn -0.815970 0.221504 -0.533975
vn -0.798555 0.263953 -0.540962
vn 0.799847 -0.501722 -0.329423
vn 0.802182 -0.511491 -0.308028
vn 0.806375 -0.568018 -0.164666
vn 0.799179 -0.596735 -0.072248
vn 0.888238 -0.437299 -0.140724
vn 0.738158 -0.658834 -0.145120
vn 0.768482 -0.634730 -0.080957
vn 0.566918 -0.743060 -0.355619
vn 0.740369 -0.644016 -0.192609
vn 0.570462 -0.780362 -0.256140
vn 0.359583 -0.819634 -0.445982
vn 0.491830 -0.863016 -0.115356
vn 0.550689 -0.834328 -0.025263
vn 0.558851 -0.825532 -0.078624
vn -0.673733 0.484656 -0.557846
vn -0.672638 0.504404 -0.541419
vn -0.677674 0.434402 -0.593341
vn -0.671202 0.443818 -0.593728
vn -0.646053 0.527995 -0.551214
vn -0.646055 0.527994 -0.551212
vn -0.646054 0.527995 -0.551213
vn -0.646058 0.527994 -0.551210
vn -0.709522 0.271251 -0.650385
vn -0.708169 0.247823 -0.661121
vn -0.632637 0.439211 -0.637859
vn -0.632637 0.439211 -0.637860
vn -0.632637 0.439210 -0.637860
vn -0.632636 0.439209 -0.637861
vn -0.812298 0.241519 -0.530887
vn -0.837549 0.248835 -0.486409
vn -0.918627 0.166690 -0.358245
vn -0.918548 0.166514 -0.358529
vn -0.917367 0.163912 -0.362728
vn -0.916806 0.162693 -0.364688
vn -0.316705 0.291001 0.902782
vn -0.306275 0.303986 0.902102
vn -0.290521 0.323243 0.900617
vn -0.256086 0.363911 0.895538
vn 0.973571 0.192953 0.122182
vn 0.940208 0.269151 0.208728
vn 0.967552 0.209651 0.141029
vn 0.929044 0.288783 0.231262
vn 0.330963 -0.302740 -0.893763
vn 0.277354 -0.336314 -0.899982
vn 0.324041 -0.307192 -0.894780
vn 0.245776 -0.355148 -0.901923
vn -0.544106 -0.152663 -0.825010
vn -0.677229 -0.166019 -0.716798
vn -0.566371 -0.155091 -0.809426
vn -0.709039 -0.168727 -0.684686
vn -0.817458 0.294362 0.495090
vn -0.858223 0.216187 0.465528
vn 0.975038 0.165582 0.147933
vn 0.947258 0.240664 0.211620
vn 0.970499 0.180123 0.160273
vn 0.939563 0.257377 0.225785
vn 0.743256 -0.377903 -0.552051
vn 0.835603 -0.271004 -0.477833
vn 0.753497 -0.367488 -0.545156
vn 0.866943 -0.225774 -0.444337
vn -0.515926 -0.326367 -0.792026
vn -0.682770 -0.288106 -0.671432
vn -0.530953 -0.323679 -0.783149
vn -0.704496 -0.281506 -0.651491
vn -0.682765 0.434610 0.587321
vn -0.680162 0.403380 0.612099
vn 0.696822 -0.346032 -0.628252
vn 0.780296 -0.207670 -0.589925
vn 0.857357 -0.039732 -0.513186
vn 0.854422 -0.061622 -0.515913
vn 0.632521 -0.431479 -0.643228
vn 0.640041 -0.410457 -0.649517
vn -0.161204 -0.664981 -0.729256
vn -0.425963 -0.665902 -0.612479
vn -0.167716 -0.665655 -0.727169
vn -0.473377 -0.659617 -0.583798
s 1
g pCube11
usemtl lambert2SG
f 3/3/1 19/6/2 1/2/3
f 1/2/3 19/6/2 21/8/4
s 2
f 55/1/5 56/4/6 58/7/7
f 58/7/7 56/4/6 57/5/8
s 3
f 2/9/9 8/10/10 3/3/11
f 3/3/11 8/10/10 7/11/12
s 4
f 4/12/13 6/13/14 24/15/15
f 24/15/15 6/13/14 22/14/16
s 5
f 5/16/17 4/12/18 11/18/19
f 11/18/19 4/12/18 12/17/20
s 6
f 9/19/21 14/20/22 7/11/23
f 7/11/23 14/20/22 13/21/24
s 7
f 9/19/25 8/10/26 10/22/27
f 10/22/27 8/10/26 11/18/28
s 8
f 10/22/29 12/17/30 17/26/31
f 17/26/31 12/17/30 18/25/32
s 9
f 13/21/33 15/27/34 19/6/35
f 19/6/35 15/27/34 20/28/36
s 10
f 15/27/37 14/20/38 16/30/39
f 16/30/39 14/20/38 17/26/40
s 11
f 16/30/41 18/25/42 23/31/43
f 23/31/43 18/25/42 24/15/44
s 12
f 21/8/45 20/28/46 22/14/47
f 22/14/47 20/28/46 23/31/48
s 13
f 2/9/49 5/16/50 8/10/51
f 8/10/51 5/16/50 11/18/52
s 14
f 9/19/53 10/22/54 14/20/55
f 14/20/55 10/22/54 17/26/56
s 15
f 15/27/57 16/30/58 20/28/59
f 20/28/59 16/30/58 23/31/60
s 16
f 60/23/61 59/24/62 56/4/63
f 56/4/63 59/24/62 57/5/64
s 17
f 4/12/65 24/15/66 12/17/67
f 12/17/67 24/15/66 18/25/68
s 18
f 19/6/69 3/3/70 13/21/71
f 13/21/71 3/3/70 7/11/72
s off
f 1/2/73 2/9/74 3/3/75
f 4/12/76 5/16/77 6/13/78
f 7/11/79 8/10/80 9/19/81
f 10/22/82 11/18/83 12/17/84
f 13/21/85 14/20/86 15/27/87
f 16/30/88 17/26/89 18/25/90
f 19/6/91 20/28/92 21/8/93
f 22/14/94 23/31/95 24/15/96
s 1
f 2/29/97 1/32/3 25/34/98
f 25/34/98 1/32/3 26/33/99
s 4
f 5/36/100 28/37/101 6/35/14
f 6/35/14 28/37/101 27/38/102
s 21
f 5/36/103 2/29/104 28/37/105
f 28/37/105 2/29/104 25/34/106
s 22
f 21/39/107 22/40/108 30/42/109
f 30/42/109 22/40/108 29/41/110
s 4
f 6/35/14 27/38/102 22/40/16
f 22/40/16 27/38/102 29/41/111
s 1
f 1/32/3 21/39/4 26/33/99
f 26/33/99 21/39/4 30/42/112
s 23
f 43/43/113 44/44/114 37/46/115
f 37/46/115 44/44/114 38/45/116
s 24
f 46/48/117 40/49/118 45/47/119
f 45/47/119 40/49/118 39/50/120
s 25
f 46/48/121 43/43/122 40/49/123
f 40/49/123 43/43/122 37/46/124
s 26
f 48/51/125 47/52/126 42/54/127
f 42/54/127 47/52/126 41/53/128
s 27
f 62/55/129 61/56/130 64/58/131
f 64/58/131 61/56/130 63/57/132
s 28
f 73/80/133 75/81/134 74/79/135
f 74/79/135 75/81/134 76/82/136
s 29
f 25/34/137 26/33/138 31/60/139
f 31/60/139 26/33/138 32/59/140
s 30
f 28/37/141 34/61/142 27/38/143
f 27/38/143 34/61/142 33/62/144
s 31
f 28/37/145 25/34/146 34/61/147
f 34/61/147 25/34/146 31/60/148
s 32
f 30/42/149 29/41/150 36/64/151
f 36/64/151 29/41/150 35/63/152
s 33
f 27/38/153 33/62/154 29/41/155
f 29/41/155 33/62/154 35/63/156
s 34
f 26/33/157 30/42/158 32/59/159
f 32/59/159 30/42/158 36/64/160
s 35
f 31/60/161 32/59/162 43/43/163
f 43/43/163 32/59/162 44/44/164
s 27
f 34/61/165 46/48/166 33/62/167
f 33/62/167 46/48/166 45/47/168
s 37
f 34/61/169 31/60/170 46/48/171
f 46/48/171 31/60/170 43/43/172
s 38
f 36/64/173 35/63/174 48/51/175
f 48/51/175 35/63/174 47/52/176
s 27
f 35/63/177 33/62/167 47/52/178
f 47/52/178 33/62/167 45/47/168
s 35
f 36/64/179 48/51/180 32/59/162
f 32/59/162 48/51/180 44/44/164
s 23
f 37/46/115 38/45/116 49/66/181
f 49/66/181 38/45/116 50/65/182
s 24
f 40/49/118 52/67/183 39/50/120
f 39/50/120 52/67/183 51/68/184
s 25
f 40/49/123 37/46/124 52/67/185
f 52/67/185 37/46/124 49/66/186
s 26
f 42/54/127 41/53/128 54/70/187
f 54/70/187 41/53/128 53/69/188
s 27
f 66/71/189 65/72/190 68/74/191
f 68/74/191 65/72/190 67/73/192
s 28
f 77/84/193 79/85/194 78/83/195
f 78/83/195 79/85/194 80/86/196
s 23
f 49/66/181 50/65/182 55/1/197
f 55/1/197 50/65/182 56/4/198
s 24
f 52/67/183 58/7/199 51/68/184
f 51/68/184 58/7/199 57/5/200
s 25
f 52/67/185 49/66/186 58/7/201
f 58/7/201 49/66/186 55/1/202
s 26
f 54/70/187 53/69/188 60/23/203
f 60/23/203 53/69/188 59/24/204
s 27
f 69/76/205 71/77/206 70/75/207
f 70/75/207 71/77/206 72/78/208
s 28
f 82/87/209 81/88/210 84/90/211
f 84/90/211 81/88/210 83/89/212
s 27
f 47/52/178 45/47/168 62/55/129
f 62/55/129 45/47/168 61/56/130
s 43
f 39/50/213 63/57/214 45/47/215
f 45/47/215 63/57/214 61/56/216
s 27
f 39/50/217 41/53/218 63/57/132
f 63/57/132 41/53/218 64/58/131
f 47/52/178 62/55/129 41/53/218
f 41/53/218 62/55/129 64/58/131
f 41/53/218 39/50/217 66/71/189
f 66/71/189 39/50/217 65/72/190
f 39/50/219 51/68/220 65/72/221
f 65/72/221 51/68/220 67/73/192
f 53/69/222 68/74/191 51/68/220
f 51/68/220 68/74/191 67/73/192
f 41/53/218 66/71/189 53/69/222
f 53/69/222 66/71/189 68/74/191
f 51/68/220 69/76/205 53/69/222
f 53/69/222 69/76/205 70/75/207
s 24
f 51/68/184 57/5/200 69/76/223
f 69/76/223 57/5/200 71/77/224
s 27
f 57/5/225 59/24/226 71/77/206
f 71/77/206 59/24/226 72/78/208
f 59/24/226 53/69/222 72/78/208
f 72/78/208 53/69/222 70/75/207
s 28
f 48/51/227 73/80/133 44/44/228
f 44/44/228 73/80/133 74/79/135
f 48/51/227 42/54/229 73/80/133
f 73/80/133 42/54/229 75/81/134
f 38/45/230 76/82/136 42/54/229
f 42/54/229 76/82/136 75/81/134
s 47
f 86/91/231 85/92/232 88/94/233
f 88/94/233 85/92/232 87/93/234
s 28
f 42/54/229 77/84/193 38/45/230
f 38/45/230 77/84/193 78/83/195
f 42/54/229 54/70/235 77/84/193
f 77/84/193 54/70/235 79/85/194
f 54/70/235 50/65/236 79/85/194
f 79/85/194 50/65/236 80/86/196
s 48
f 89/91/237 91/96/238 90/95/239
f 90/95/239 91/96/238 92/97/240
s 28
f 50/65/236 54/70/235 82/87/209
f 82/87/209 54/70/235 81/88/210
f 60/23/241 83/89/212 54/70/235
f 54/70/235 83/89/212 81/88/210
f 56/4/242 84/90/211 60/23/241
f 60/23/241 84/90/211 83/89/212
s 49
f 93/95/243 95/99/244 94/98/245
f 94/98/245 95/99/244 96/100/246
s 50
f 38/45/247 44/44/248 86/91/249
f 86/91/249 44/44/248 85/92/250
s 51
f 74/79/251 87/93/252 44/44/253
f 44/44/253 87/93/252 85/92/254
s 52
f 76/82/255 88/94/256 74/79/257
f 74/79/257 88/94/256 87/93/258
s 53
f 38/45/259 86/91/260 76/82/261
f 76/82/261 86/91/260 88/94/262
s 23
f 50/65/182 38/45/116 90/95/263
f 90/95/263 38/45/116 89/91/264
s 54
f 78/83/265 91/96/266 38/45/267
f 38/45/267 91/96/266 89/91/268
s 55
f 80/86/269 92/97/270 78/83/271
f 78/83/271 92/97/270 91/96/272
s 56
f 50/65/273 90/95/274 80/86/275
f 80/86/275 90/95/274 92/97/276
s 23
f 56/4/198 50/65/182 94/98/277
f 94/98/277 50/65/182 93/95/278
s 57
f 82/87/279 95/99/280 50/65/281
f 50/65/281 95/99/280 93/95/282
f 84/90/283 96/100/284 82/87/279
f 82/87/279 96/100/284 95/99/280
s 58
f 56/4/285 94/98/286 84/90/287
f 84/90/287 94/98/286 96/100/288
