# This file uses centimeters as units for non-parametric coordinates.

mtllib Right_leg.mtl
g default
v -0.575621 -0.700754 -0.108491
v -0.538319 -0.474417 -0.006648
v -0.528458 -0.459194 -0.164076
v -0.273576 -0.647605 0.161294
v -0.410866 -0.568632 0.156053
v -0.448168 -0.794969 0.054210
v -0.306658 -0.070193 -0.112566
v -0.316520 -0.085416 0.044861
v -0.155741 0.087427 0.019002
v -0.028288 -0.006788 0.181703
v -0.189066 -0.179631 0.207563
v -0.051777 -0.258604 0.212803
v -0.159478 -0.133956 -0.264784
v 0.082438 -0.015759 -0.227329
v -0.022189 -0.212929 -0.259543
v 0.105264 -0.307143 -0.096842
v 0.209891 -0.109973 -0.064628
v 0.095403 -0.322366 0.060586
v -0.381278 -0.522957 -0.316293
v -0.243988 -0.601930 -0.311053
v -0.428441 -0.764517 -0.260709
v -0.300988 -0.858732 -0.098008
v -0.116535 -0.696145 -0.148352
v -0.126397 -0.711368 0.009076
v -0.354149 -0.951969 -0.110354
v -0.481603 -0.857754 -0.273055
v -0.501329 -0.888206 0.041864
v -0.628783 -0.793991 -0.120837
vt 0.651485 0.654242
vt 0.647412 0.697987
vt 0.613776 0.768903
vt 0.613776 0.768903
vt 0.647412 0.697987
vt 0.647412 0.768903
vt 0.710625 0.654242
vt 0.714698 0.697987
vt 0.714698 0.768903
vt 0.647412 0.910763
vt 0.613776 0.910763
vt 0.748334 0.768903
vt 0.714698 0.697987
vt 0.748334 0.768903
vt 0.748334 0.910763
vt 0.714698 0.910763
vt 0.647412 0.981679
vt 0.647412 0.981679
vt 0.613776 0.910763
vt 0.714698 0.981679
vt 0.748334 0.910763
vt 0.714698 0.981679
vt 0.710625 0.654242
vt 0.647412 0.910763
vt 0.647412 0.768903
vt 0.714698 0.910763
vt 0.714698 0.768903
vt 0.651485 0.691982
vt 0.651485 0.654242
vt 0.710625 0.691982
vt 0.710625 0.691982
vt 0.651485 0.691982
vn -0.689812 0.114381 -0.714896
vn -0.722535 -0.017955 -0.691101
vn -0.689812 0.114381 -0.714896
vn -0.722535 -0.017955 -0.691101
vn -0.814280 -0.121231 0.567672
vn -0.786636 0.002065 0.617414
vn -0.814280 -0.121231 0.567672
vn -0.786636 0.002065 0.617414
vn -0.868327 0.495951 -0.006435
vn -0.868327 0.495951 -0.006435
vn -0.868327 0.495951 -0.006435
vn -0.868327 0.495951 -0.006435
vn 0.279656 -0.758785 0.588250
vn 0.372502 -0.670893 0.641206
vn 0.279656 -0.758785 0.588250
vn 0.372502 -0.670893 0.641206
vn -0.085491 -0.082730 0.992898
vn -0.085491 -0.082730 0.992898
vn -0.085491 -0.082730 0.992898
vn -0.085491 -0.082730 0.992898
vn -0.279656 0.758785 -0.588250
vn -0.279657 0.758785 -0.588250
vn -0.279657 0.758785 -0.588250
vn -0.279657 0.758785 -0.588250
vn -0.476191 0.546070 0.689239
vn -0.476191 0.546070 0.689239
vn -0.476191 0.546070 0.689239
vn -0.476191 0.546070 0.689239
vn 0.722535 0.017955 0.691102
vn 0.722535 0.017955 0.691101
vn 0.722535 0.017955 0.691101
vn 0.722535 0.017956 0.691101
vn 0.085490 0.082730 -0.992898
vn 0.085490 0.082730 -0.992898
vn 0.085490 0.082730 -0.992898
vn 0.085490 0.082730 -0.992898
vn 0.685499 -0.252164 -0.683011
vn 0.685499 -0.252164 -0.683011
vn 0.685499 -0.252164 -0.683011
vn 0.685499 -0.252163 -0.683011
vn 0.868327 -0.495951 0.006435
vn 0.868327 -0.495951 0.006435
vn 0.868327 -0.495951 0.006435
vn 0.868327 -0.495951 0.006435
vn 0.476881 -0.545327 -0.689350
vn 0.380823 -0.638984 -0.668336
vn 0.476881 -0.545326 -0.689350
vn 0.380823 -0.638984 -0.668336
vn -0.665586 0.288351 0.688367
vn -0.665586 0.288351 0.688367
vn -0.665586 0.288351 0.688367
vn -0.665586 0.288351 0.688367
vn 0.492074 0.863021 0.114277
vn 0.492074 0.863021 0.114277
vn 0.492074 0.863021 0.114277
vn 0.492074 0.863021 0.114277
vn 0.665586 -0.288351 -0.688367
vn 0.665586 -0.288351 -0.688367
vn 0.665586 -0.288351 -0.688367
vn 0.665586 -0.288351 -0.688367
vn -0.492074 -0.863020 -0.114277
vn -0.492074 -0.863020 -0.114277
vn -0.492074 -0.863020 -0.114277
vn -0.492074 -0.863020 -0.114277
vn 0.561123 -0.414788 0.716304
vn 0.561123 -0.414788 0.716304
vn 0.561123 -0.414788 0.716304
vn 0.561123 -0.414788 0.716304
vn -0.561123 0.414788 -0.716304
vn -0.561123 0.414788 -0.716304
vn -0.561123 0.414788 -0.716304
vn -0.561123 0.414788 -0.716304
vn -0.982373 0.181687 -0.043968
vn -0.982373 0.181687 -0.043968
vn -0.982373 0.181687 -0.043968
vn -0.243836 -0.364247 0.898815
vn -0.243836 -0.364247 0.898815
vn -0.243836 -0.364247 0.898815
vn -0.730537 0.682573 0.020242
vn -0.730537 0.682573 0.020242
vn -0.730537 0.682573 0.020242
vn 0.030956 0.119669 0.992331
vn 0.030956 0.119669 0.992331
vn 0.030956 0.119669 0.992331
vn 0.100140 0.108453 -0.989045
vn 0.100140 0.108453 -0.989045
vn 0.100140 0.108453 -0.989045
vn 0.882628 -0.469969 0.009843
vn 0.882628 -0.469969 0.009843
vn 0.882628 -0.469969 0.009843
vn -0.082531 -0.208150 -0.974609
vn -0.082531 -0.208150 -0.974609
vn -0.082531 -0.208150 -0.974609
vn 0.656006 -0.754084 -0.031825
vn 0.656006 -0.754084 -0.031825
vn 0.656006 -0.754084 -0.031825
vn 0.665586 -0.288351 -0.688367
vn 0.665585 -0.288351 -0.688367
vn 0.561123 -0.414789 0.716304
vn 0.561123 -0.414789 0.716304
vn -0.665586 0.288351 0.688367
vn -0.665586 0.288352 0.688367
vn -0.561123 0.414788 -0.716304
vn -0.561123 0.414788 -0.716304
s 1
g pCube13
usemtl lambert2SG
f 1/2/1 3/3/2 21/5/3
f 21/5/3 3/3/2 19/4/4
s 2
f 2/6/5 1/2/6 5/9/7
f 5/9/7 1/2/6 6/8/8
s 3
f 3/3/9 2/6/10 7/11/11
f 7/11/11 2/6/10 8/10/12
s 4
f 4/12/13 6/8/14 24/14/15
f 24/14/15 6/8/14 22/13/16
s 5
f 5/9/17 4/12/18 11/16/19
f 11/16/19 4/12/18 12/15/20
s 6
f 7/11/21 9/17/22 13/19/23
f 13/19/23 9/17/22 14/18/24
s 7
f 9/17/25 8/10/26 10/20/27
f 10/20/27 8/10/26 11/16/28
s 8
f 12/15/29 18/21/30 10/20/31
f 10/20/31 18/21/30 17/22/32
s 9
f 13/19/33 15/24/34 19/4/35
f 19/4/35 15/24/34 20/25/36
s 10
f 15/24/37 14/18/38 16/26/39
f 16/26/39 14/18/38 17/22/40
s 11
f 16/26/41 18/21/42 23/27/43
f 23/27/43 18/21/42 24/14/44
s 12
f 21/5/45 20/25/46 22/13/47
f 22/13/47 20/25/46 23/27/48
s 13
f 2/6/49 5/9/50 8/10/51
f 8/10/51 5/9/50 11/16/52
s 14
f 9/17/53 10/20/54 14/18/55
f 14/18/55 10/20/54 17/22/56
s 15
f 15/24/57 16/26/58 20/25/59
f 20/25/59 16/26/58 23/27/60
s 16
f 26/1/61 25/7/62 28/29/63
f 28/29/63 25/7/62 27/23/64
s 17
f 4/12/65 24/14/66 12/15/67
f 12/15/67 24/14/66 18/21/68
s 18
f 19/4/69 3/3/70 13/19/71
f 13/19/71 3/3/70 7/11/72
s off
f 1/2/73 2/6/74 3/3/75
f 4/12/76 5/9/77 6/8/78
f 7/11/79 8/10/80 9/17/81
f 10/20/82 11/16/83 12/15/84
f 13/19/85 14/18/86 15/24/87
f 16/26/88 17/22/89 18/21/90
f 19/4/91 20/25/92 21/5/93
f 22/13/94 23/27/95 24/14/96
s 12
f 21/32/45 22/31/47 26/1/97
f 26/1/97 22/31/47 25/7/98
s 4
f 22/31/16 6/30/14 25/7/99
f 25/7/99 6/30/14 27/23/100
s 2
f 6/30/8 1/28/6 27/23/101
f 27/23/101 1/28/6 28/29/102
s 1
f 1/28/1 21/32/3 28/29/103
f 28/29/103 21/32/3 26/1/104
