# This file uses centimeters as units for non-parametric coordinates.

mtllib Right_Hand.mtl
g default
v -0.182634 -0.165097 0.065107
v -0.209179 -0.101213 0.115791
v -0.141735 -0.121250 0.092834
v -0.202872 -0.100743 -0.116399
v -0.246097 -0.077584 -0.032483
v -0.261866 -0.146676 -0.100691
v -0.082000 -0.037442 0.094786
v -0.145683 0.012536 0.069773
v -0.044076 0.024791 0.078425
v -0.061202 0.047240 -0.012756
v -0.158572 0.029432 0.001147
v -0.111884 0.001733 -0.064327
v 0.040506 -0.123729 0.050533
v 0.078430 -0.061495 0.034172
v 0.057845 -0.130818 -0.003747
v 0.044956 -0.113922 -0.072374
v 0.061305 -0.039046 -0.057009
v 0.010623 -0.084554 -0.108580
v -0.019229 -0.207537 0.048581
v -0.026451 -0.242067 -0.020186
v -0.052505 -0.252905 -0.017961
v -0.105528 -0.256792 -0.157165
v -0.042569 -0.220938 -0.106004
v -0.080366 -0.187029 -0.160652
v -0.239281 -0.086518 0.003803
v -0.241275 -0.173668 0.008941
v -0.084937 -0.283784 -0.047533
v -0.035753 -0.229872 -0.069717
v 0.050406 -0.121066 -0.043356
v 0.066755 -0.046190 -0.027991
v -0.055752 0.040096 0.016261
v -0.153122 0.022288 0.030165
v -0.159526 -0.327863 -0.130988
v -0.113996 -0.321990 -0.066054
v -0.303466 -0.226479 -0.089004
v -0.293232 -0.239895 -0.034516
v -0.176935 -0.378823 -0.088272
v -0.131670 -0.346334 -0.064351
v -0.302764 -0.316227 -0.030582
v -0.293464 -0.273135 -0.022423
v -0.129277 -0.383517 0.007829
v -0.095408 -0.349931 0.000978
v -0.284200 -0.309796 0.050918
v -0.282673 -0.260250 0.044697
v -0.274314 -0.175329 0.169761
v -0.225136 -0.210573 0.135703
v -0.255747 -0.204869 0.085852
v -0.302448 -0.165763 0.117570
v -0.298392 -0.234862 0.187080
v -0.257579 -0.265717 0.159534
v -0.274061 -0.256623 0.119486
v -0.314434 -0.223389 0.147534
vt 0.791128 0.078100
vt 0.791128 0.089761
vt 0.825284 0.089761
vt 0.829178 0.078100
vt 0.775726 0.082626
vt 0.785767 0.156562
vt 0.785588 0.069319
vt 0.785976 0.137463
vt 0.830711 0.137463
vt 0.785588 0.069319
vt 0.775726 0.082626
vt 0.775726 0.085589
vt 0.830043 0.156562
vt 0.765803 0.156562
vt 0.775726 0.109157
vt 0.791128 0.109157
vt 0.791128 0.122550
vt 0.785767 0.194644
vt 0.765803 0.194644
vt 0.785767 0.213868
vt 0.825284 0.122550
vt 0.825284 0.109157
vt 0.832473 0.109157
vt 0.832473 0.082626
vt 0.829178 0.069319
vt 0.765803 0.194644
vt 0.832473 0.082626
vt 0.785767 0.213868
vt 0.832473 0.082626
vt 0.830043 0.194644
vt 0.830043 0.213868
vt 0.829178 0.069319
vt 0.823957 0.034871
vt 0.823957 0.025960
vt 0.790212 0.025960
vt 0.790212 0.034871
vt 0.839362 0.194644
vt 0.830043 0.213868
vt 0.772156 0.056536
vt 0.784583 0.056011
vt 0.783139 0.054890
vt 0.770470 0.055831
vt 0.832473 0.109157
vt 0.825284 0.122550
vt 0.791128 0.122550
vt 0.775726 0.109157
vt 0.827502 0.052783
vt 0.827502 0.052783
vt 0.787369 0.052783
vt 0.787369 0.052783
vt 0.825284 0.033717
vt 0.825284 0.042860
vt 0.787369 0.033717
vt 0.787369 0.042860
vt 0.784962 0.067598
vt 0.770168 0.067952
vt 0.782113 0.064221
vt 0.767422 0.065399
vt 0.839362 0.156562
vt 0.765803 0.156562
vt 0.839362 0.156562
vt 0.839362 0.194644
vn -0.142238 -0.783290 0.605165
vn -0.127117 -0.744596 0.655301
vn -0.082599 -0.621407 0.779122
vn -0.043806 -0.504448 0.862330
vn -0.980713 0.033788 0.192511
vn -0.980713 0.033788 0.192512
vn -0.980713 0.033788 0.192512
vn -0.980713 0.033788 0.192513
vn -0.251723 0.157176 0.954951
vn 0.003845 0.169974 0.985441
vn 0.178226 0.172251 0.968796
vn 0.362163 0.168704 0.916721
vn -0.300865 0.060942 -0.951718
vn -0.300865 0.060942 -0.951718
vn -0.300865 0.060942 -0.951718
vn -0.300865 0.060942 -0.951718
vn -0.504038 0.605712 -0.615678
vn -0.516277 0.649482 -0.558239
vn -0.523505 0.679422 -0.514129
vn -0.529280 0.707736 -0.467945
vn 0.356961 0.027941 0.933701
vn 0.356960 0.027940 0.933702
vn 0.356961 0.027941 0.933702
vn 0.356960 0.027940 0.933702
vn -0.137477 0.955482 0.261064
vn -0.137477 0.955482 0.261062
vn -0.137477 0.955482 0.261063
vn -0.137477 0.955482 0.261062
vn 0.182490 0.641309 -0.745265
vn 0.182490 0.641309 -0.745265
vn 0.182490 0.641309 -0.745265
vn 0.182490 0.641309 -0.745265
vn 0.768535 -0.555184 0.318002
vn 0.762083 -0.600573 0.241954
vn 0.765590 -0.581668 0.274836
vn 0.760018 -0.609295 0.226124
vn 0.961283 -0.164534 -0.221052
vn 0.961283 -0.164533 -0.221053
vn 0.961283 -0.164534 -0.221053
vn 0.961283 -0.164534 -0.221054
vn 0.595382 -0.246647 -0.764647
vn 0.678716 -0.277548 -0.679935
vn 0.631435 -0.260063 -0.730519
vn 0.696935 -0.284246 -0.658396
vn 0.642412 -0.707383 -0.294817
vn 0.642411 -0.707383 -0.294817
vn 0.666260 -0.706288 -0.239280
vn 0.647134 -0.726295 -0.231759
vn -0.784083 0.552263 0.283232
vn -0.784083 0.552263 0.283232
vn -0.784083 0.552263 0.283232
vn -0.784083 0.552263 0.283232
vn 0.594161 0.799808 0.085324
vn 0.594161 0.799808 0.085324
vn 0.594161 0.799808 0.085321
vn 0.594161 0.799808 0.085321
vn 0.784082 -0.552263 -0.283232
vn 0.784082 -0.552263 -0.283233
vn 0.784082 -0.552263 -0.283232
vn 0.784082 -0.552263 -0.283234
vn 0.276195 0.111349 0.954630
vn 0.273543 0.095833 0.957074
vn 0.253144 -0.012901 0.967343
vn 0.245455 -0.050032 0.968116
vn -0.001818 0.454298 -0.890848
vn -0.001819 0.454298 -0.890848
vn -0.001819 0.454298 -0.890848
vn -0.001819 0.454299 -0.890848
vn 0.220130 -0.179230 0.958864
vn 0.220130 -0.179231 0.958864
vn 0.220130 -0.179231 0.958864
vn 0.220130 -0.179231 0.958863
vn 0.095387 -0.594070 0.798738
vn 0.095387 -0.594070 0.798738
vn 0.095387 -0.594070 0.798738
vn -0.613516 0.621265 -0.487471
vn -0.613516 0.621265 -0.487471
vn -0.613516 0.621265 -0.487471
vn -0.118584 0.319427 0.940162
vn -0.118584 0.319427 0.940162
vn -0.118584 0.319427 0.940162
vn -0.224716 0.829565 -0.511199
vn -0.224716 0.829565 -0.511199
vn -0.224716 0.829565 -0.511199
vn 0.843096 -0.428261 0.325241
vn 0.843096 -0.428261 0.325241
vn 0.843096 -0.428261 0.325241
vn 0.719584 -0.014661 -0.694251
vn 0.719584 -0.014661 -0.694251
vn 0.719584 -0.014661 -0.694251
vn 0.382543 -0.841180 0.382202
vn 0.382543 -0.841180 0.382202
vn 0.382543 -0.841179 0.382202
vn 0.696917 -0.284277 -0.658403
vn 0.696917 -0.284277 -0.658403
vn 0.696917 -0.284277 -0.658403
vn -0.598553 -0.801016 0.010433
vn -0.601533 -0.798085 0.034891
vn -0.602710 -0.796663 0.045481
vn -0.605065 -0.793190 0.068895
vn -0.003325 -0.689821 0.723972
vn -0.332639 -0.778684 0.531980
vn -0.139942 -0.739787 0.658127
vn -0.368341 -0.781342 0.503815
vn 0.641515 -0.756205 -0.128889
vn 0.347253 -0.893361 -0.285169
vn 0.784083 -0.552263 -0.283231
vn 0.784082 -0.552263 -0.283233
vn 0.961283 -0.164534 -0.221052
vn 0.961283 -0.164534 -0.221052
vn 0.594161 0.799807 0.085325
vn 0.594161 0.799807 0.085325
vn -0.137476 0.955482 0.261065
vn -0.137477 0.955482 0.261065
vn -0.784083 0.552263 0.283232
vn -0.784083 0.552263 0.283232
vn 0.824764 -0.493341 -0.276367
vn 0.744583 -0.565531 -0.354642
vn 0.712239 -0.600487 -0.363499
vn 0.659658 -0.627749 -0.413257
vn -0.374221 -0.056595 -0.925611
vn -0.443401 -0.217959 -0.869419
vn -0.310148 -0.016235 -0.950550
vn -0.410009 -0.215054 -0.886366
vn -0.882472 0.390685 0.261932
vn -0.894665 0.363793 0.259285
vn -0.835750 0.475798 0.274112
vn -0.835750 0.475798 0.274112
vn 0.012332 -0.335011 0.942133
vn 0.042378 -0.362162 0.931152
vn -0.070030 -0.497324 0.864734
vn 0.011547 -0.443285 0.896307
vn 0.667220 -0.628810 -0.399268
vn 0.664712 -0.627177 -0.405963
vn -0.517154 -0.826521 -0.222297
vn -0.536050 -0.756752 -0.374135
vn -0.964467 0.155945 0.213270
vn -0.964751 0.131967 0.227685
vn 0.424517 0.875194 0.231994
vn 0.461345 0.871264 0.167512
vn 0.612198 -0.694470 -0.378055
vn 0.633475 -0.679105 -0.370845
vn -0.390681 -0.908324 0.149383
vn -0.385575 -0.909731 0.154016
vn -0.980973 0.093014 0.170411
vn -0.987562 0.049188 0.149336
vn 0.363463 0.907003 -0.212697
vn 0.393441 0.903754 -0.168622
vn 0.586555 0.039972 0.808922
vn 0.680873 0.018336 0.732172
vn 0.779044 0.000480 0.626969
vn 0.866143 -0.035616 0.498526
vn 0.545770 -0.733005 -0.406003
vn 0.467506 -0.808872 -0.356602
vn 0.389811 -0.871608 -0.297232
vn 0.396159 -0.874387 -0.280188
vn -0.728790 -0.450366 -0.515786
vn -0.793255 -0.226961 -0.565009
vn -0.870347 -0.094842 -0.483220
vn -0.871583 -0.008954 -0.490166
vn -0.547481 0.798011 0.251879
vn -0.582024 0.731500 0.355185
vn -0.543099 0.792394 0.277768
vn -0.629775 0.634399 0.448243
vn 0.565273 0.011327 0.824826
vn 0.571428 0.012950 0.820550
vn 0.692187 -0.588056 -0.418410
vn 0.686919 -0.571891 -0.448423
vn -0.672577 -0.220975 -0.706265
vn -0.671352 -0.224762 -0.706236
vn -0.773053 0.429408 0.466901
vn -0.778053 0.443973 0.444434
s 1
g pCube12
usemtl lambert2SG
f 21/4/1 19/3/2 1/1/3
f 1/1/3 19/3/2 3/2/4
s 2
f 25/5/5 5/11/6 26/7/7
f 26/7/7 5/11/6 6/10/8
s 3
f 7/16/9 8/15/10 3/2/11
f 3/2/11 8/15/10 2/12/12
s 4
f 24/13/13 22/9/14 4/6/15
f 4/6/15 22/9/14 6/8/16
s 5
f 11/19/17 12/18/18 5/14/19
f 5/14/19 12/18/18 4/6/20
s 6
f 7/16/21 13/22/22 9/17/23
f 9/17/23 13/22/22 14/21/24
s 7
f 31/20/25 10/28/26 32/26/27
f 32/26/27 10/28/26 11/19/28
s 8
f 10/28/29 17/31/30 12/18/31
f 12/18/31 17/31/30 18/30/32
s 9
f 13/22/33 19/3/34 15/23/35
f 15/23/35 19/3/34 20/24/36
s 10
f 29/37/37 16/62/38 30/38/39
f 30/38/39 16/62/38 17/31/40
s 11
f 16/62/41 23/61/42 18/30/43
f 18/30/43 23/61/42 24/13/44
s 12
f 22/32/45 23/29/46 27/25/47
f 27/25/47 23/29/46 28/27/48
s 13
f 32/26/49 11/19/50 25/60/51
f 25/60/51 11/19/50 5/14/52
s 14
f 31/20/53 30/38/54 10/28/55
f 10/28/55 30/38/54 17/31/56
s 15
f 29/37/57 28/59/58 16/62/59
f 16/62/59 28/59/58 23/61/60
s 16
f 44/36/61 43/35/62 42/33/63
f 42/33/63 43/35/62 41/34/64
s 17
f 4/6/65 12/18/66 24/13/67
f 24/13/67 12/18/66 18/30/68
s 18
f 19/3/69 13/22/70 3/2/71
f 3/2/71 13/22/70 7/16/72
s off
f 1/1/73 3/2/74 2/12/75
f 4/6/76 6/8/77 5/14/78
f 7/16/79 9/17/80 8/15/81
f 10/28/82 12/18/83 11/19/84
f 13/22/85 15/23/86 14/21/87
f 16/62/88 18/30/89 17/31/90
f 19/3/91 21/4/92 20/24/93
f 22/9/94 24/13/95 23/61/96
s 19
f 49/39/97 52/42/98 50/40/99
f 50/40/99 52/42/98 51/41/100
s 20
f 21/4/101 1/1/102 27/25/103
f 27/25/103 1/1/102 26/7/104
s 12
f 27/25/47 28/27/48 21/4/105
f 21/4/105 28/27/48 20/24/106
s 15
f 15/23/107 20/24/108 29/43/57
f 29/43/57 20/24/108 28/27/58
s 10
f 29/43/37 30/44/39 15/23/109
f 15/23/109 30/44/39 14/21/110
s 14
f 9/17/111 14/21/112 31/45/53
f 31/45/53 14/21/112 30/44/54
s 7
f 9/17/113 31/45/25 8/15/114
f 8/15/114 31/45/25 32/46/27
s 13
f 2/12/115 8/15/116 25/5/51
f 25/5/51 8/15/116 32/46/49
s 21
f 27/25/117 34/48/118 22/32/119
f 22/32/119 34/48/118 33/47/120
s 22
f 22/32/121 33/47/122 6/10/123
f 6/10/123 33/47/122 35/49/124
s 23
f 35/49/125 36/50/126 6/10/127
f 6/10/127 36/50/126 26/7/128
s 24
f 36/50/129 34/48/130 26/7/131
f 26/7/131 34/48/130 27/25/132
s 21
f 34/48/118 38/52/133 33/47/120
f 33/47/120 38/52/133 37/51/134
s 22
f 37/51/135 39/53/136 33/47/122
f 33/47/122 39/53/136 35/49/124
s 23
f 35/49/125 39/53/137 36/50/126
f 36/50/126 39/53/137 40/54/138
s 24
f 36/50/129 40/54/139 34/48/130
f 34/48/130 40/54/139 38/52/140
s 21
f 42/33/141 41/34/142 38/52/133
f 38/52/133 41/34/142 37/51/134
s 22
f 41/34/143 43/35/144 37/51/135
f 37/51/135 43/35/144 39/53/136
s 23
f 39/53/137 43/35/145 40/54/138
f 40/54/138 43/35/145 44/36/146
s 24
f 40/54/139 44/36/147 38/52/140
f 38/52/140 44/36/147 42/33/148
s 26
f 45/56/149 46/55/150 2/12/151
f 2/12/151 46/55/150 1/1/152
s 27
f 46/55/153 47/57/154 1/1/155
f 1/1/155 47/57/154 26/7/156
s 28
f 47/57/157 48/58/158 26/7/159
f 26/7/159 48/58/158 25/5/160
s 29
f 25/5/161 48/58/162 2/12/163
f 2/12/163 48/58/162 45/56/164
s 26
f 49/39/165 50/40/166 45/56/149
f 45/56/149 50/40/166 46/55/150
s 27
f 50/40/167 51/41/168 46/55/153
f 46/55/153 51/41/168 47/57/154
s 28
f 51/41/169 52/42/170 47/57/157
f 47/57/157 52/42/170 48/58/158
s 29
f 48/58/162 52/42/171 45/56/164
f 45/56/164 52/42/171 49/39/172
