# This file uses centimeters as units for non-parametric coordinates.

mtllib floor.mtl
g default
v -24.000000 -0.250000 24.000000
v 24.000000 -0.250000 24.000000
v -24.000000 0.250000 24.000000
v 24.000000 0.250000 24.000000
v -24.000000 0.250000 -24.000000
v 24.000000 0.250000 -24.000000
v -24.000000 -0.250000 -24.000000
v 24.000000 -0.250000 -24.000000
v 23.000000 0.250000 24.000000
v 24.000000 0.250000 24.000000
v 23.000000 5.250000 24.000000
v 24.000000 5.250000 24.000000
v 23.000000 5.250000 23.000000
v 24.000000 5.250000 23.000000
v 23.000000 0.250000 23.000000
v 24.000000 0.250000 23.000000
v -23.000107 0.250000 23.000000
v -23.000107 0.250000 24.000000
v -23.000107 5.250000 24.000000
v -23.000107 5.250000 23.000000
v -23.984863 0.250000 23.000000
v -23.984863 0.250000 24.000000
v -23.984863 5.250000 24.000000
v -23.984863 5.250000 23.000000
v -23.000107 5.250000 -22.996841
v -23.000107 0.250000 -22.996841
v -23.984863 0.250000 -22.996841
v -23.984863 5.250000 -22.996841
v -23.000107 5.250000 -23.996994
v -23.000107 0.250000 -23.996994
v -23.984863 0.250000 -23.996994
v -23.984863 5.250000 -23.996994
v 22.978210 5.250000 -22.996841
v 22.978210 0.250000 -22.996841
v 22.978210 0.250000 -23.996994
v 22.978210 5.250000 -23.996994
v 23.989159 5.250000 -22.996841
v 23.989159 0.250000 -22.996841
v 23.989159 0.250000 -23.996994
v 23.989159 5.250000 -23.996994
v 22.978210 5.250000 -2.013725
v 22.978210 0.250000 -2.013725
v 23.989159 0.250000 -2.013725
v 23.989159 5.250000 -2.013725
v 23.000000 5.250000 2.008987
v 24.000000 5.250000 2.008987
v 24.000000 0.250000 2.008987
v 23.000000 0.250000 2.008987
vt 0.375000 0.000000
vt 0.625000 0.000000
vt 0.004995 -0.001190
vt 0.625000 0.250000
vt 0.375000 0.500000
vt 1.001874 0.995689
vt 0.004995 -0.006679
vt 0.625000 0.750000
vt 0.004995 0.990200
vt 1.001874 0.990200
vt 0.875000 0.000000
vt 0.875000 0.250000
vt 0.125000 0.000000
vt 0.125000 0.250000
vt 1.001874 -0.006679
vt 0.375000 0.750000
vt 1.001874 -0.001190
vt 0.625000 0.500000
vt 0.375000 0.250000
vt 0.004995 0.995689
vt 0.800351 0.000972
vt 0.899752 0.000972
vt 0.899752 0.100373
vt 0.800351 0.100373
vt 0.899752 0.199774
vt 0.800351 0.199774
vt 0.800351 0.199774
vt 0.899752 0.199774
vt 0.899752 0.299176
vt 0.800351 0.299176
vt 0.800351 0.299176
vt 0.899752 0.299176
vt 0.899752 0.398577
vt 0.800351 0.398577
vt 0.999153 0.000972
vt 0.999153 0.100373
vt 0.700950 0.000972
vt 0.800351 0.000972
vt 0.800351 0.100373
vt 0.700950 0.100373
vt 0.700950 0.000972
vt 0.800351 0.000972
vt 0.700950 0.000972
vt 0.800351 0.100373
vt 0.700950 0.100373
vt 0.700950 0.100373
vt 0.700950 0.100373
vt 0.700950 0.000972
vt 0.700950 0.000972
vt 0.700950 0.100373
vt 0.700950 0.000972
vt 0.700950 0.100373
vt 0.700950 0.000972
vt 0.700950 0.100373
vt 0.700950 0.100373
vt 0.700950 0.000972
vt 0.700950 0.000972
vt 0.700950 0.100373
vt 0.700950 0.000972
vt 0.700950 0.100373
vt 0.700950 0.000972
vt 0.700950 0.100373
vt 0.700950 0.100373
vt 0.700950 0.000972
vt 0.700950 0.000972
vt 0.700950 0.100373
vn 0.000000 0.000000 1.000000
vn 0.000000 0.000000 1.000000
vn 0.000000 0.000000 1.000000
vn 0.000000 0.000000 1.000000
vn 0.000000 1.000000 0.000000
vn 0.000000 1.000000 0.000000
vn 0.000000 1.000000 0.000000
vn 0.000000 1.000000 0.000000
vn 0.000000 0.000000 -1.000000
vn 0.000000 0.000000 -1.000000
vn 0.000000 0.000000 -1.000000
vn 0.000000 0.000000 -1.000000
vn 0.000000 -1.000000 0.000000
vn 0.000000 -1.000000 0.000000
vn 0.000000 -1.000000 0.000000
vn 0.000000 -1.000000 0.000000
vn 1.000000 0.000000 0.000000
vn 1.000000 0.000000 0.000000
vn 1.000000 0.000000 0.000000
vn 1.000000 0.000000 0.000000
vn -1.000000 0.000000 0.000000
vn -1.000000 0.000000 0.000000
vn -1.000000 0.000000 0.000000
vn -1.000000 0.000000 0.000000
vn 0.000000 0.000000 1.000000
vn 0.000000 0.000000 1.000000
vn 0.000000 0.000000 1.000000
vn 0.000000 0.000000 1.000000
vn 0.000000 1.000000 0.000000
vn 0.000000 1.000000 0.000000
vn 0.000000 1.000000 0.000000
vn 0.000000 1.000000 0.000000
vn 0.000000 0.000000 -1.000000
vn 0.000000 0.000000 -1.000000
vn 0.000000 0.000000 -1.000000
vn 0.000000 0.000000 -1.000000
vn 0.000000 -1.000000 0.000000
vn 0.000000 -1.000000 0.000000
vn 0.000000 -1.000000 0.000000
vn 0.000000 -1.000000 0.000000
vn 1.000000 0.000000 0.000000
vn 1.000000 0.000000 0.000000
vn 1.000000 0.000000 0.000000
vn 1.000000 0.000000 0.000000
vn -1.000000 0.000000 0.000000
vn -1.000000 0.000000 0.000000
vn -1.000000 0.000000 0.000000
vn -1.000000 0.000000 0.000000
vn 0.000000 -1.000000 0.000000
vn 0.000000 -1.000000 0.000000
vn 0.000000 0.000000 1.000000
vn 0.000000 0.000000 1.000000
vn 0.000000 1.000000 0.000000
vn 0.000000 1.000000 0.000000
vn 0.000000 0.000000 -1.000000
vn 0.000000 0.000000 -1.000000
vn 0.000000 0.000000 -1.000000
vn 0.000000 0.000000 -1.000000
vn 0.000000 -1.000000 0.000000
vn 0.000000 -1.000000 0.000000
vn 0.000000 0.000000 1.000000
vn 0.000000 0.000000 1.000000
vn 0.000000 1.000000 0.000000
vn 0.000000 1.000000 0.000000
vn 0.000000 0.000000 -1.000000
vn 0.000000 0.000000 -1.000000
vn 0.000000 0.000000 -1.000000
vn 0.000000 0.000000 -1.000000
vn 1.000000 0.000000 0.000000
vn 1.000000 0.000000 0.000000
vn 1.000000 0.000000 0.000000
vn 1.000000 0.000000 0.000000
vn 0.000000 -1.000000 0.000000
vn 0.000000 -1.000000 0.000000
vn -1.000000 0.000000 0.000000
vn -1.000000 0.000000 0.000000
vn 0.000000 1.000000 0.000000
vn 0.000000 1.000000 0.000000
vn 1.000000 0.000000 0.000000
vn 1.000000 0.000000 0.000000
vn 1.000000 0.000000 0.000000
vn 1.000000 0.000000 0.000000
vn 0.000000 -1.000000 0.000000
vn 0.000000 -1.000000 0.000000
vn -1.000000 0.000000 0.000000
vn -1.000000 0.000000 0.000000
vn 0.000000 1.000000 0.000000
vn 0.000000 1.000000 0.000000
vn 0.000000 0.000000 1.000000
vn 0.000000 0.000000 1.000000
vn 0.000000 0.000000 1.000000
vn 0.000000 0.000000 1.000000
vn 0.000000 -1.000000 0.000000
vn 0.000000 -1.000000 0.000000
vn 0.000000 0.000000 -1.000000
vn 0.000000 0.000000 -1.000000
vn 0.000000 1.000000 0.000000
vn 0.000000 1.000000 0.000000
vn 0.000000 0.000000 1.000000
vn 0.000000 0.000000 1.000000
vn 0.000000 0.000000 1.000000
vn 0.000000 0.000000 1.000000
vn 0.000000 -1.000000 0.000000
vn 0.000000 -1.000000 0.000000
vn 0.000000 0.000000 -1.000000
vn 0.000000 0.000000 -1.000000
vn 0.000000 1.000000 0.000000
vn 0.000000 1.000000 0.000000
vn -1.000000 0.000000 0.000000
vn -1.000000 0.000000 0.000000
vn -1.000000 0.000000 0.000000
vn -1.000000 0.000000 0.000000
vn 0.000000 -1.000000 0.000000
vn 0.000000 -1.000000 0.000000
vn 1.000000 0.000000 0.000000
vn 1.000000 0.000000 0.000000
vn 0.000000 1.000000 0.000000
vn 0.000000 1.000000 0.000000
vn 0.000000 1.000000 0.000000
vn 0.000000 1.000000 0.000000
vn 1.000000 0.000000 0.000000
vn 1.000000 0.000000 0.000000
vn 0.000000 -1.000000 0.000000
vn 0.000000 -1.000000 0.000000
vn -1.000000 0.000000 0.000000
vn -1.000000 0.000000 0.000000
vn -1.000000 0.000000 0.000000
vn -1.000000 0.000000 0.000000
s 1
g pCube7
usemtl lambert2SG
f 1/1/1 2/2/2 3/19/3
f 3/19/3 2/2/2 4/4/4
s 2
f 3/3/5 4/17/6 5/20/7
f 5/20/7 4/17/6 6/6/8
s 3
f 5/5/9 6/18/10 7/16/11
f 7/16/11 6/18/10 8/8/12
s 4
f 7/7/13 8/15/14 1/9/15
f 1/9/15 8/15/14 2/10/16
s 5
f 2/2/17 8/11/18 4/4/19
f 4/4/19 8/11/18 6/12/20
s 6
f 7/13/21 1/1/22 5/14/23
f 5/14/23 1/1/22 3/19/24
s 7
f 9/21/25 10/22/26 11/24/27
f 11/24/27 10/22/26 12/23/28
s 8
f 11/24/29 12/23/30 13/26/31
f 13/26/31 12/23/30 14/25/32
s 9
f 45/27/33 46/28/34 48/30/35
f 48/30/35 46/28/34 47/29/36
s 10
f 15/31/37 16/32/38 9/34/39
f 9/34/39 16/32/38 10/33/40
s 11
f 10/22/41 16/35/42 12/23/43
f 12/23/43 16/35/42 14/36/44
s 12
f 21/37/45 22/38/46 24/40/47
f 24/40/47 22/38/46 23/39/48
s 10
f 15/41/37 9/21/39 17/43/49
f 17/43/49 9/21/39 18/42/50
s 7
f 9/21/25 11/24/27 18/42/51
f 18/42/51 11/24/27 19/44/52
s 8
f 11/24/29 13/45/31 19/44/53
f 19/44/53 13/45/31 20/46/54
s 13
f 13/45/55 15/41/56 20/46/57
f 20/46/57 15/41/56 17/43/58
s 10
f 17/43/49 18/42/50 21/37/59
f 21/37/59 18/42/50 22/38/60
s 7
f 18/42/51 19/44/52 22/38/61
f 22/38/61 19/44/52 23/39/62
s 8
f 19/44/53 20/46/54 23/39/63
f 23/39/63 20/46/54 24/40/64
s 14
f 29/47/65 30/48/66 32/50/67
f 32/50/67 30/48/66 31/49/68
s 15
f 20/46/69 17/43/70 25/52/71
f 25/52/71 17/43/70 26/51/72
s 10
f 17/43/49 21/37/59 26/51/73
f 26/51/73 21/37/59 27/53/74
s 12
f 21/37/45 24/40/47 27/53/75
f 27/53/75 24/40/47 28/54/76
s 8
f 24/40/64 20/46/54 28/54/77
f 28/54/77 20/46/54 25/52/78
s 16
f 37/55/79 38/56/80 40/58/81
f 40/58/81 38/56/80 39/57/82
s 10
f 26/51/73 27/53/74 30/48/83
f 30/48/83 27/53/74 31/49/84
s 12
f 27/53/75 28/54/76 31/49/85
f 31/49/85 28/54/76 32/50/86
s 8
f 28/54/77 25/52/78 32/50/87
f 32/50/87 25/52/78 29/47/88
s 17
f 25/52/89 26/51/90 33/60/91
f 33/60/91 26/51/90 34/59/92
s 10
f 26/51/73 30/48/83 34/59/93
f 34/59/93 30/48/83 35/61/94
s 14
f 30/48/66 29/47/65 35/61/95
f 35/61/95 29/47/65 36/62/96
s 8
f 29/47/88 25/52/78 36/62/97
f 36/62/97 25/52/78 33/60/98
s 18
f 41/63/99 42/64/100 44/66/101
f 44/66/101 42/64/100 43/65/102
s 10
f 34/59/93 35/61/94 38/56/103
f 38/56/103 35/61/94 39/57/104
s 14
f 35/61/95 36/62/96 39/57/105
f 39/57/105 36/62/96 40/58/106
s 8
f 36/62/97 33/60/98 40/58/107
f 40/58/107 33/60/98 37/55/108
s 19
f 33/60/109 34/59/110 41/63/111
f 41/63/111 34/59/110 42/64/112
s 10
f 34/59/93 38/56/103 42/64/113
f 42/64/113 38/56/103 43/65/114
s 16
f 38/56/80 37/55/79 43/65/115
f 43/65/115 37/55/79 44/66/116
s 8
f 37/55/108 33/60/98 44/66/117
f 44/66/117 33/60/98 41/63/118
f 13/26/31 14/25/32 45/27/119
f 45/27/119 14/25/32 46/28/120
s 11
f 14/25/44 16/32/42 46/28/121
f 46/28/121 16/32/42 47/29/122
s 10
f 16/32/38 15/31/37 47/29/123
f 47/29/123 15/31/37 48/30/124
s 20
f 15/31/125 13/26/126 48/30/127
f 48/30/127 13/26/126 45/27/128
